<?xml version="1.0" standalone="no"?>
<!DOCTYPE svg PUBLIC "-//W3C//DTD SVG 20010904//EN"
 "http://www.w3.org/TR/2001/REC-SVG-20010904/DTD/svg10.dtd">
<svg version="1.0" xmlns="http://www.w3.org/2000/svg"
 width="500.000000pt" height="500.000000pt" viewBox="0 0 500.000000 500.000000"
 preserveAspectRatio="xMidYMid meet">
<metadata>
Created by potrace 1.14, written by Peter Selinger 2001-2017
</metadata>
<g transform="translate(0.000000,500.000000) scale(0.100000,-0.100000)"
fill="#000000" stroke="none">
<path d="M0 2575 c0 -1334 4 -2424 9 -2421 4 3 8 -1 8 -9 0 -8 -4 -12 -9 -9
-4 3 -8 -26 -8 -64 l0 -70 172 -1 c120 0 176 3 187 12 8 7 12 7 8 1 -4 -7 6
-11 28 -12 19 -1 35 3 35 8 0 5 -7 7 -15 4 -8 -4 -15 -1 -15 5 0 6 -8 11 -17
11 -22 0 -14 6 20 14 19 4 26 3 22 -3 -3 -6 0 -8 9 -5 11 4 13 0 9 -15 -4 -16
-1 -21 16 -21 19 0 20 2 9 20 -9 14 -9 23 -2 30 8 8 13 7 18 -5 4 -11 2 -14
-7 -10 -6 4 -4 0 5 -8 10 -8 15 -17 11 -20 -12 -13 92 -6 107 6 17 13 27 53
12 43 -6 -3 -8 2 -5 14 3 11 10 23 15 26 5 3 4 12 -3 20 -10 12 -8 18 7 30 18
15 18 15 -3 11 -16 -4 -24 1 -28 14 -4 10 -11 19 -16 19 -5 0 -9 6 -9 13 0 8
-8 21 -18 30 -17 16 -20 15 -40 -8 -12 -14 -27 -25 -33 -25 -6 0 -1 8 12 18
15 13 19 21 11 26 -7 4 -12 3 -12 -3 0 -6 -10 -16 -23 -22 -19 -10 -20 -10
-11 2 6 8 10 22 8 32 -2 14 2 17 14 13 15 -5 15 -5 0 7 -19 15 -14 27 10 27 9
0 12 -3 9 -7 -8 -7 11 -33 24 -33 5 0 5 8 2 18 -6 15 -5 15 11 3 14 -12 19
-12 26 -2 5 9 10 10 14 2 4 -6 3 -11 -3 -11 -5 0 -8 -8 -6 -17 2 -10 4 -22 4
-26 1 -5 5 -5 11 -2 6 4 7 -1 3 -11 -4 -12 -3 -15 6 -10 6 4 11 4 10 -1 -4
-22 2 -35 15 -30 8 3 20 -1 28 -10 10 -13 10 -17 1 -20 -7 -3 -13 -9 -13 -14
0 -6 4 -7 10 -4 5 3 18 1 27 -5 15 -9 14 -10 -6 -4 -17 4 -22 3 -18 -7 2 -8
10 -13 16 -12 6 2 11 -2 11 -8 0 -6 -8 -8 -18 -5 -13 4 -18 0 -19 -14 -1 -11
3 -22 8 -26 5 -3 -1 -14 -13 -24 l-23 -19 57 -1 c36 0 58 5 61 13 4 9 6 9 6 0
1 -7 13 -13 27 -13 17 0 23 4 18 13 -6 9 -5 9 7 0 8 -7 43 -12 78 -12 l63 1
-6 26 c-5 20 -4 23 4 12 9 -13 14 -7 11 13 0 4 4 7 10 7 7 0 8 -7 4 -17 -3
-10 -7 -22 -8 -28 -1 -7 265 -11 781 -12 479 -1 782 2 782 8 0 5 10 9 23 9 18
0 19 -2 7 -10 -10 -6 427 -10 1228 -10 l1242 0 0 2500 0 2500 -784 0 c-515 0
-787 -4 -791 -10 -4 -6 -11 -8 -16 -5 -5 4 -12 -1 -15 -9 -3 -9 -10 -14 -14
-11 -5 3 -13 -3 -19 -12 -5 -10 -12 -17 -15 -15 -15 6 -27 1 -20 -9 4 -8 9 -7
15 2 5 8 9 10 9 6 0 -4 17 4 37 17 20 14 40 22 43 17 3 -4 12 -11 20 -14 10
-5 9 -6 -5 -5 -31 3 -65 -12 -65 -27 0 -8 -8 -12 -20 -10 -21 4 -27 -9 -10
-20 6 -3 10 -1 10 5 0 6 4 9 9 5 5 -3 16 3 23 12 13 19 48 30 48 16 0 -4 -5
-15 -11 -23 -8 -11 -12 -12 -16 -2 -7 18 -23 4 -17 -16 4 -11 3 -13 -3 -5 -5
8 -14 9 -23 3 -9 -5 -19 -5 -27 2 -21 17 -15 -4 12 -44 19 -28 21 -37 11 -41
-7 -3 -19 0 -25 6 -21 21 -11 -8 16 -48 15 -22 19 -34 10 -26 -10 8 -17 9 -17
3 0 -13 19 -25 44 -29 29 -5 33 -13 7 -13 -14 0 -20 -4 -16 -12 4 -7 -5 1 -20
17 l-27 30 18 -35 c17 -35 17 -35 -3 -17 -11 9 -23 14 -26 10 -11 -10 -8 6 4
29 8 15 8 23 -2 32 -9 8 -10 7 -5 -9 7 -19 6 -18 -13 2 -12 12 -21 28 -21 35
1 10 4 9 13 -2 7 -8 21 -16 32 -17 20 -1 20 -1 1 13 -11 8 -16 14 -12 14 5 0
3 7 -4 15 -17 21 -4 32 20 17 23 -14 25 -9 9 20 -9 17 -13 18 -21 7 -7 -10 -8
-8 -3 8 3 12 1 24 -5 28 -5 3 -10 11 -10 16 0 6 4 7 10 4 13 -8 13 8 0 21 -12
12 -2 47 10 39 5 -3 6 4 3 15 -3 11 -10 20 -15 20 -5 0 -6 -5 -2 -11 13 -22
-20 -29 -36 -8 -16 20 -16 20 -15 -3 0 -13 4 -29 9 -36 4 -7 6 -16 3 -19 -9
-9 -39 46 -31 58 5 8 3 9 -6 4 -7 -4 -15 -2 -20 5 -5 9 -9 8 -13 -3 -3 -7 -1
-20 4 -28 7 -12 9 -12 9 0 0 8 11 0 25 -19 19 -25 22 -36 12 -42 -13 -8 -40
19 -31 33 2 4 -7 6 -21 3 -18 -3 -25 0 -25 11 0 10 5 13 12 9 7 -4 8 -3 4 4
-10 16 -32 5 -33 -18 -1 -11 2 -18 7 -15 5 3 12 0 16 -6 5 -8 9 -8 14 1 5 8
14 0 29 -23 29 -47 26 -58 -5 -22 l-26 30 21 -32 c24 -35 29 -69 6 -36 -9 13
-23 20 -34 18 -12 -2 -26 5 -35 20 -20 30 -20 41 -2 26 11 -9 16 -9 22 0 4 7
3 9 -4 5 -6 -3 -16 3 -22 14 -6 11 -7 20 -2 20 10 0 9 30 -1 48 -5 6 -19 11
-32 10 -20 -2 -22 -5 -13 -21 5 -10 7 -21 4 -24 -3 -3 -11 6 -17 21 -13 28
-24 33 -34 16 -4 -6 -1 -9 6 -8 6 2 14 -3 17 -11 3 -9 0 -11 -8 -6 -9 5 -11 4
-6 -4 4 -6 11 -9 16 -6 5 3 14 -3 19 -14 15 -28 -9 -33 -32 -7 -18 21 -18 21
-2 -5 13 -23 14 -27 2 -32 -15 -6 -37 10 -37 26 0 5 8 3 18 -4 14 -11 15 -11
5 1 -15 17 -43 22 -43 9 0 -6 -4 -7 -10 -4 -5 3 -10 11 -10 16 0 6 5 7 10 4
16 -10 11 8 -8 31 -21 25 -64 27 -68 2 -2 -14 14 -28 36 -32 13 -3 30 -18 30
-28 0 -6 -7 -5 -17 3 -11 9 -14 10 -9 2 4 -7 2 -21 -3 -30 -8 -15 -11 -15 -12
-3 -1 8 -1 19 0 23 1 5 -3 6 -9 2 -5 -3 -10 -3 -10 2 0 4 -10 19 -21 33 l-21
25 19 -33 c18 -33 18 -33 -7 -54 l-25 -20 29 17 c23 14 30 15 37 4 13 -20 11
-31 -3 -23 -9 5 -9 3 1 -9 7 -9 17 -15 21 -12 4 3 8 -7 8 -20 0 -19 -4 -23
-13 -15 -8 7 -18 5 -31 -6 -18 -15 -18 -15 2 -5 16 8 23 6 32 -10 16 -25 15
-34 -2 -20 -11 9 -16 9 -22 0 -4 -7 -3 -9 4 -5 6 3 16 -2 22 -13 6 -12 16 -18
26 -14 13 5 13 8 -1 30 -9 14 -15 27 -12 29 4 5 47 -61 47 -72 0 -3 -4 -2 -10
1 -6 4 -7 -1 -3 -12 6 -16 5 -16 -10 -4 -14 11 -18 11 -23 -3 -3 -9 -10 -13
-16 -10 -5 3 -7 13 -4 21 3 8 2 12 -3 9 -5 -3 -20 12 -35 34 -22 34 -25 44
-15 63 6 12 8 19 4 15 -5 -4 -15 -2 -24 5 -14 11 -14 10 -2 -6 8 -9 11 -20 8
-23 -6 -6 -57 65 -57 79 0 4 5 5 12 1 7 -5 8 -3 3 6 -6 10 -4 12 8 7 17 -6 33
8 19 17 -5 3 -21 -4 -38 -14 -29 -20 -29 -20 -47 3 l-18 22 11 -23 c6 -12 8
-28 4 -34 -5 -7 -3 -8 6 -3 10 6 12 4 7 -9 -4 -10 -7 -20 -7 -22 0 -3 -5 -2
-12 2 -7 4 -2 -7 11 -24 12 -18 27 -29 32 -26 6 3 9 -2 7 -12 -2 -10 2 -19 7
-19 16 -1 35 -15 35 -27 0 -6 -7 -5 -17 3 -15 11 -16 11 -5 -1 20 -23 14 -35
-8 -15 -19 17 -19 17 -15 -5 5 -26 15 -40 15 -21 0 7 4 10 9 6 6 -3 14 3 20
12 6 10 11 14 11 10 0 -4 9 -3 19 3 16 8 23 5 40 -19 25 -35 27 -48 4 -30 -12
10 -10 4 5 -18 28 -40 28 -48 -2 -26 -13 10 -22 21 -20 25 2 3 -4 5 -13 4 -9
-2 -19 -8 -21 -14 -2 -7 -8 -10 -13 -6 -5 3 -12 -2 -15 -10 -3 -9 -10 -16 -15
-16 -15 0 -10 19 10 37 23 19 18 37 -7 24 -9 -4 -25 -7 -34 -6 -19 3 -24 -10
-8 -20 6 -3 10 -2 10 3 0 5 7 9 16 9 14 0 14 -2 3 -11 -15 -12 -18 -44 -6 -63
4 -7 1 -10 -10 -8 -10 2 -19 4 -20 5 -2 2 -6 3 -10 4 -5 1 -14 5 -20 9 -8 5
-13 3 -13 -4 0 -7 -3 -9 -6 -6 -4 4 -1 14 7 23 13 16 12 17 -11 11 l-25 -6 25
19 c24 19 25 19 6 37 -16 16 -18 16 -13 1 6 -17 -8 -19 -30 -5 -20 13 -15 26
7 22 24 -5 26 8 5 25 -13 11 -14 10 -9 -3 4 -11 0 -15 -13 -13 -14 2 -18 12
-18 39 0 19 -2 38 -5 41 -12 12 -4 -71 10 -94 8 -14 13 -31 11 -39 -1 -8 2
-10 11 -5 7 4 10 4 6 -1 -4 -4 -2 -17 4 -29 10 -20 10 -20 -8 -4 -62 57 -109
84 -119 67 -4 -5 -11 -7 -16 -4 -5 4 -9 -2 -9 -12 0 -15 -2 -16 -10 -3 -9 15
7 33 21 24 4 -2 10 3 13 11 4 13 2 14 -14 5 -11 -6 -20 -8 -20 -4 0 3 -8 0
-18 -7 -15 -13 -16 -12 -4 3 16 20 8 40 -13 32 -8 -4 -13 -9 -11 -13 3 -4 -4
-7 -14 -8 -10 -1 -21 5 -24 13 -5 13 -10 13 -36 -1 -17 -9 -30 -11 -30 -5 0 5
7 10 15 10 8 0 15 5 15 11 0 5 6 7 13 3 9 -6 9 -4 0 7 -22 22 -14 33 9 13 12
-10 18 -14 15 -8 -7 13 17 27 27 17 10 -10 7 -25 -3 -18 -14 8 -25 -15 -12
-28 7 -7 12 -6 17 6 3 9 11 14 18 10 6 -4 4 4 -5 17 -10 15 -25 24 -39 24 -16
-1 -35 16 -72 67 -62 85 -73 91 -18 10 43 -65 50 -81 23 -60 -11 9 -10 4 5
-15 21 -27 22 -46 2 -46 -5 0 -7 8 -4 18 3 9 -2 5 -11 -10 -17 -30 -30 -35
-41 -16 -4 6 -3 8 4 4 6 -3 13 -2 17 4 9 15 15 54 7 46 -4 -4 -7 -13 -7 -19 0
-15 -25 -21 -25 -5 -1 7 -8 2 -16 -12 -9 -15 -13 -18 -9 -6 4 15 3 17 -8 7
-11 -9 -17 -8 -26 2 -6 8 -9 17 -6 20 3 4 2 5 -2 2 -3 -3 -13 1 -22 7 -13 10
-14 10 -3 -2 16 -18 16 -38 0 -22 -7 7 -20 12 -30 12 -9 0 -21 6 -25 14 -4 8
-15 14 -23 14 -38 -3 -74 3 -65 10 13 9 13 27 1 39 -5 4 -6 3 -3 -3 11 -19
-40 -26 -78 -10 -19 8 -35 20 -35 25 0 15 17 14 23 -1 3 -8 6 -6 6 5 1 9 6 17
13 17 6 0 3 9 -7 20 -14 16 -20 17 -27 8 -6 -10 -10 -10 -17 0 -6 10 -10 8
-14 -8 -4 -16 -2 -20 9 -16 8 3 14 1 14 -4 0 -6 -5 -10 -11 -10 -5 0 -8 -4 -5
-9 4 -5 -3 -7 -15 -4 -13 4 -16 8 -10 13 8 4 5 13 -9 25 -11 10 -21 15 -21 12
-1 -4 -3 -11 -4 -17 -1 -5 -3 -13 -4 -16 0 -4 -7 -2 -13 4 -13 10 -19 12 -38
12 -5 0 -10 5 -10 11 0 8 5 7 15 -1 13 -11 14 -10 9 4 -3 9 -1 16 5 16 6 0 11
-4 11 -10 0 -5 11 0 25 12 34 29 21 42 -18 18 -36 -22 -52 -26 -41 -8 4 7 3 8
-4 4 -7 -4 -12 -14 -12 -22 0 -8 -5 -14 -11 -14 -5 0 -7 5 -4 10 12 20 -7 32
-22 13 -13 -17 -13 -17 -4 3 6 12 7 25 3 29 -4 5 2 5 13 1 11 -4 16 -4 12 0
-4 4 -1 14 6 22 9 11 4 11 -15 -2 -27 -18 -34 -14 -29 17 0 4 -2 6 -6 6 -5 -1
-10 0 -13 1 -21 8 -38 6 -34 -4 2 -6 -5 -12 -17 -13 -11 -1 -27 -10 -35 -20
-11 -13 -14 -14 -12 -3 2 8 14 23 28 33 22 15 22 17 5 14 -11 -1 -26 -7 -34
-12 -10 -5 -16 -4 -19 3 -2 8 -237 11 -838 12 l-834 1 0 -2426z m2960 2404 c0
7 5 9 10 6 14 -9 12 -22 -5 -29 -9 -3 -19 3 -26 17 -11 20 -11 21 4 8 12 -9
17 -10 17 -2z m186 -2 c4 -4 3 -7 -3 -7 -6 0 -9 -14 -7 -31 2 -16 0 -28 -5
-25 -5 3 -12 -1 -15 -10 -3 -8 -2 -12 3 -9 5 3 30 -25 55 -63 47 -70 61 -106
25 -62 l-21 25 16 -27 c20 -33 21 -44 3 -29 -8 6 -18 7 -22 3 -5 -4 -6 0 -3 8
3 9 0 24 -8 35 -20 26 -17 40 4 24 15 -13 16 -12 4 3 -8 10 -19 16 -24 15 -6
-1 -13 4 -16 12 -3 9 0 11 8 6 9 -6 11 -4 5 5 -6 10 -11 9 -21 -4 -8 -12 -14
-14 -19 -6 -4 6 1 18 11 26 18 14 18 14 -3 5 -15 -8 -24 -8 -28 -1 -4 6 -11 8
-16 5 -5 -4 -9 -1 -9 6 0 6 8 9 19 6 13 -3 18 0 15 8 -3 7 2 15 10 18 10 4 13
13 9 23 -4 12 -3 15 5 10 7 -4 12 -3 12 3 0 5 -4 13 -10 16 -5 3 -10 10 -10
15 0 9 26 7 36 -3z m688 -2 c3 -8 1 -15 -4 -15 -6 0 -10 7 -10 15 0 8 2 15 4
15 2 0 6 -7 10 -15z m-2160 -3 c2 -4 -4 -9 -15 -9 -11 -1 -17 2 -14 8 7 11 22
12 29 1z m126 -12 c8 -15 8 -20 -2 -20 -11 0 -11 -2 0 -8 8 -6 2 -9 -17 -9
-16 0 -30 3 -29 6 2 18 -4 22 -15 12 -10 -8 -14 -7 -14 4 0 8 4 12 9 9 4 -3 8
0 8 6 0 6 4 9 9 5 5 -3 12 -1 16 5 10 16 23 12 35 -10z m1495 -35 c2 -14 8
-32 14 -39 8 -10 8 -22 1 -41 -7 -20 -7 -31 1 -41 6 -8 8 -14 4 -14 -9 0 -34
31 -35 43 0 5 4 6 9 3 5 -4 7 4 3 16 -4 16 -2 19 9 13 11 -7 11 -5 -1 11 -22
29 -24 30 -17 12 4 -10 2 -18 -4 -18 -6 0 -8 -4 -5 -9 8 -13 -4 -42 -15 -35
-5 3 -9 10 -9 15 0 6 5 7 10 4 13 -8 13 8 -1 22 -8 8 -5 17 10 32 23 23 26 37
11 46 -5 3 -10 11 -10 18 0 22 23 -11 25 -38z m-232 -69 c17 -21 17 -21 11 -1
-5 17 -2 16 15 -5 25 -30 27 -48 4 -29 -11 9 -9 2 6 -19 13 -18 21 -36 18 -39
-6 -5 -50 54 -81 108 -11 20 -21 29 -23 21 -3 -6 -10 -9 -15 -6 -7 4 -8 2 -4
-5 4 -6 12 -8 18 -5 7 5 9 2 5 -8 -3 -9 1 -25 9 -37 8 -12 12 -27 9 -34 -4 -6
0 -4 8 5 13 16 19 11 72 -67 39 -56 61 -81 66 -73 6 9 10 8 15 -5 4 -10 13
-16 20 -13 8 3 14 1 14 -3 0 -17 -28 -20 -34 -4 -4 9 -9 13 -13 9 -3 -3 2 -15
12 -26 10 -11 15 -23 12 -26 -4 -4 -14 7 -24 25 -19 32 -37 43 -26 14 4 -11 3
-14 -5 -9 -8 5 -10 2 -6 -8 9 -24 -4 -19 -17 5 -6 12 -7 19 -1 15 25 -15 19
29 -9 70 -26 38 -33 43 -50 34 -15 -9 -21 -7 -25 5 -3 8 -9 13 -13 10 -7 -4
-33 26 -55 63 -17 29 5 9 29 -25 14 -21 25 -34 25 -30 0 4 -7 19 -16 32 -9 13
-13 29 -10 34 4 5 1 13 -5 17 -8 5 -10 2 -5 -7 4 -8 -1 -3 -12 10 -23 28 -20
44 11 59 18 8 25 6 37 -11 8 -11 23 -30 33 -41z m-1023 24 c0 -5 -4 -10 -10
-10 -5 0 -10 5 -10 10 0 6 5 10 10 10 6 0 10 -4 10 -10z m823 -58 c46 -67 56
-89 38 -78 -5 4 -11 1 -13 -4 -2 -6 -11 4 -21 22 l-18 33 20 -24 c12 -13 21
-19 21 -14 0 12 -40 49 -48 45 -4 -2 -8 2 -11 9 -2 7 1 9 10 4 7 -5 3 7 -9 27
-21 33 -26 48 -19 48 2 0 25 -31 50 -68z m521 33 c-4 -8 -7 -15 -9 -15 -2 0
-5 7 -9 15 -3 9 0 15 9 15 9 0 12 -6 9 -15z m39 8 c8 -7 -11 -33 -24 -33 -5 0
-9 5 -9 11 0 5 5 7 12 3 8 -5 9 -2 5 9 -6 17 4 23 16 10z m-601 -49 c-9 -16
-10 -16 -21 4 -8 16 -8 22 -1 22 6 0 8 6 4 13 -4 6 1 5 11 -4 13 -13 15 -21 7
-35z m226 10 c-4 -3 -12 5 -18 18 -12 22 -12 22 6 6 10 -10 15 -20 12 -24z
m165 7 c-3 -10 10 -15 21 -8 2 1 14 -7 25 -17 22 -20 22 -20 15 0 -5 15 -4 16
6 7 8 -7 9 -16 2 -28 -9 -16 -10 -16 -23 1 -8 11 -22 20 -31 20 -25 2 -22 -5
7 -16 14 -5 25 -14 25 -20 0 -6 -5 -8 -12 -4 -7 4 -8 3 -4 -4 4 -7 1 -12 -6
-13 -7 0 -3 -4 10 -9 12 -5 22 -15 22 -22 0 -9 -3 -9 -10 2 -8 13 -11 13 -22
1 -7 -8 -8 -11 -2 -8 17 10 42 -34 39 -66 -2 -16 1 -25 7 -21 5 3 8 -2 6 -12
-2 -11 2 -18 10 -16 6 1 12 -5 12 -13 0 -8 -4 -15 -9 -15 -15 0 -53 59 -46 70
4 6 1 9 -6 8 -6 -2 -14 3 -17 11 -2 8 0 11 6 7 6 -3 13 -2 16 3 3 4 -4 8 -17
7 -17 -1 -22 5 -23 24 -1 14 3 33 8 43 7 14 3 28 -16 58 -31 46 -31 48 -8 44
9 -1 16 -8 15 -14z m-87 -16 c-3 -9 0 -15 8 -15 17 0 29 -25 34 -67 1 -7 7
-13 13 -13 5 0 7 6 4 13 -4 6 1 3 9 -7 11 -13 12 -22 6 -26 -7 -4 -5 -11 5
-20 8 -7 15 -18 15 -24 -1 -6 -8 -2 -18 10 -10 11 -22 19 -28 17 -15 -5 -55
63 -48 82 4 8 11 12 17 8 6 -3 7 -1 3 6 -4 6 -11 9 -16 6 -5 -3 -11 -1 -14 4
-6 10 2 41 11 41 3 0 3 -7 -1 -15z m332 -5 c-7 -10 -14 -18 -15 -16 -6 6 9 36
18 36 5 0 4 -9 -3 -20z m-2353 -28 c-3 -3 -11 0 -18 7 -9 10 -8 11 6 5 10 -3
15 -9 12 -12z m2278 -9 c-3 -7 -6 -13 -8 -13 -2 0 -5 6 -8 13 -3 8 1 14 8 14
7 0 11 -6 8 -14z m52 7 c3 -5 2 -10 -4 -10 -5 0 -13 5 -16 10 -3 6 -2 10 4 10
5 0 13 -4 16 -10z m-141 -43 c-1 -9 2 -15 6 -12 5 3 11 1 15 -5 6 -9 -8 -14
-28 -11 -5 1 -6 -3 -2 -9 3 -6 11 -8 16 -5 5 4 12 -1 15 -10 5 -12 9 -13 14
-4 6 8 13 3 23 -17 15 -30 15 -30 -14 -29 -16 0 -29 4 -29 9 0 4 9 6 21 3 13
-3 19 -1 16 6 -3 7 -11 10 -18 8 -8 -2 -19 -4 -26 -4 -9 0 -9 -6 -2 -19 6 -10
14 -16 19 -13 5 3 12 0 16 -6 4 -8 3 -9 -4 -5 -7 4 -12 2 -12 -3 0 -14 6 -14
30 1 12 8 22 9 27 3 5 -6 7 -9 4 -8 -2 1 -12 -2 -22 -8 -16 -8 -17 -14 -8 -31
6 -11 12 -32 14 -46 3 -24 2 -25 -11 -7 -8 10 -17 16 -20 12 -4 -4 -13 1 -21
11 -13 15 -13 15 -8 -8 l7 -25 -17 23 c-12 17 -20 20 -34 12 -18 -9 -31 -4
-31 12 0 4 3 7 8 7 28 -5 32 2 16 26 -9 14 -19 23 -22 20 -3 -3 0 -11 6 -17
17 -17 15 -27 -5 -24 -12 2 -18 12 -18 29 -1 14 2 24 6 21 4 -2 9 1 11 7 2 6
16 -7 32 -30 24 -34 31 -39 47 -30 16 8 17 14 9 30 -6 11 -16 16 -22 13 -7 -4
-8 -2 -4 5 4 6 2 18 -4 26 -6 8 -9 19 -5 25 4 6 2 17 -4 24 -8 9 -8 22 -2 39
8 21 7 25 -4 20 -8 -3 -15 0 -15 7 0 6 8 10 18 8 9 -2 16 -11 16 -21z m-231
-10 c4 3 7 1 7 -5 0 -6 8 -9 18 -6 14 5 15 4 2 -5 -12 -9 -9 -17 4 -8 2 1 13
-7 25 -17 16 -15 18 -22 9 -27 -7 -4 -18 -3 -25 3 -18 15 -16 2 5 -29 11 -18
12 -24 3 -19 -9 6 -12 5 -9 -5 3 -8 10 -13 16 -12 5 1 18 -7 28 -18 14 -16 15
-22 6 -28 -10 -6 -9 -11 3 -21 18 -15 21 -35 3 -24 -7 5 -9 2 -5 -9 9 -23 -18
-28 -32 -5 -7 11 -8 17 -2 13 17 -10 13 7 -9 35 -10 14 -28 25 -39 25 -12 0
-21 3 -21 8 0 4 0 11 0 16 0 10 19 9 36 -2 8 -4 11 3 10 22 -1 28 -16 57 -16
32 0 -7 -4 -9 -10 -6 -5 3 -10 -1 -10 -9 0 -8 -16 -26 -35 -39 -19 -13 -32
-27 -28 -30 3 -4 11 0 17 8 10 13 12 13 23 -3 7 -13 8 -23 1 -33 -8 -11 -9
-11 -4 3 7 23 -10 33 -22 12 -11 -19 -22 -20 -33 -2 -5 7 -13 14 -19 14 -21 3
-22 4 -10 19 10 12 10 15 -2 15 -8 0 -20 -6 -28 -12 -12 -11 -12 -10 -1 4 7 9
10 21 8 26 -3 4 -2 13 2 20 5 9 12 5 21 -13 7 -14 16 -25 20 -25 8 0 7 47 -2
56 -12 11 -9 26 3 19 6 -4 10 -1 8 6 -3 29 1 40 14 32 20 -12 38 -12 36 0 -4
31 1 39 14 28 8 -6 17 -8 20 -4z m730 -22 c-3 -9 -8 -14 -10 -11 -3 3 -2 9 2
15 9 16 15 13 8 -4z m-372 -24 c6 10 8 7 6 -9 -1 -22 -17 -32 -17 -11 0 5 -4
7 -10 4 -6 -4 -7 1 -3 11 5 13 8 14 11 5 4 -11 6 -11 13 0z m-23 -57 c-4 -3
-12 5 -18 18 -12 22 -12 22 6 6 10 -10 15 -20 12 -24z m-478 12 c0 -8 -5 -18
-10 -21 -6 -4 -8 -11 -5 -16 4 -5 1 -9 -4 -9 -14 0 -14 6 -1 31 6 10 8 19 6
19 -3 0 -15 -18 -26 -40 -11 -22 -23 -40 -26 -40 -2 0 0 8 5 19 6 10 7 21 4
25 -3 3 0 6 7 6 7 0 10 3 7 7 -7 6 21 32 36 33 4 0 7 -6 7 -14z m-1270 -11 c5
3 12 0 16 -7 4 -7 4 -10 -1 -6 -4 4 -14 0 -22 -10 -12 -16 -13 -16 -7 1 4 10
1 17 -6 17 -6 0 -8 5 -4 12 6 9 9 9 12 0 2 -7 8 -10 12 -7z m1566 -73 c15 -26
29 -41 32 -34 3 10 8 8 19 -5 13 -17 14 -16 8 7 l-7 25 17 -23 c12 -17 20 -20
34 -13 13 7 20 4 31 -12 12 -20 12 -21 -3 -8 -10 7 -17 9 -17 3 0 -11 -18 -11
-37 1 -19 12 -16 0 12 -40 25 -38 25 -53 -2 -53 -13 0 -13 3 -3 15 10 12 10
19 2 27 -9 9 -12 8 -12 -4 0 -24 -27 -30 -46 -10 -10 9 -21 17 -25 17 -4 0
-11 4 -16 8 -4 5 -3 8 2 7 23 -5 30 1 32 27 0 16 -2 21 -7 13 -5 -9 -9 -9 -14
-1 -4 6 -12 9 -17 5 -14 -8 -40 27 -34 45 3 7 1 19 -5 26 -6 7 -7 20 -4 29 9
22 25 8 60 -52z m204 48 c0 -5 -2 -10 -4 -10 -3 0 -8 5 -11 10 -3 6 -1 10 4
10 6 0 11 -4 11 -10z m-29 -23 c-17 -17 -13 -26 9 -20 11 3 20 0 20 -6 0 -5
-7 -8 -15 -5 -11 5 -13 2 -9 -9 3 -10 12 -13 22 -9 14 5 15 4 2 -10 -13 -13
-17 -10 -41 26 -25 40 -22 60 8 49 10 -4 11 -9 4 -16z m-1806 3 c3 -5 1 -10
-4 -10 -6 0 -11 5 -11 10 0 6 2 10 4 10 3 0 8 -4 11 -10z m235 -10 c0 -5 -5
-10 -11 -10 -5 0 -7 5 -4 10 3 6 8 10 11 10 2 0 4 -4 4 -10z m86 -44 c-4 -15
-1 -26 7 -29 9 -4 9 -6 0 -6 -6 -1 -14 3 -17 7 -6 9 4 52 11 52 3 0 2 -11 -1
-24z m1194 -2 c0 -8 -4 -14 -9 -14 -6 0 -9 9 -8 19 1 22 17 18 17 -5z m302
-52 c-7 -2 -9 -9 -6 -14 5 -7 2 -8 -6 -3 -9 6 -10 2 -5 -16 7 -23 7 -24 -9 -4
-20 26 -20 35 0 35 11 0 14 6 8 22 -6 22 -6 22 12 3 13 -13 15 -20 6 -23z m38
28 c0 -5 -5 -10 -11 -10 -5 0 -7 5 -4 10 3 6 8 10 11 10 2 0 4 -4 4 -10z
m-1600 -10 c0 -5 -5 -10 -11 -10 -5 0 -7 5 -4 10 3 6 8 10 11 10 2 0 4 -4 4
-10z m1261 -7 c13 -16 12 -17 -3 -4 -17 13 -22 21 -14 21 2 0 10 -8 17 -17z
m85 -9 c-4 -9 -1 -23 5 -30 10 -12 9 -13 -5 -8 -9 3 -16 10 -16 14 0 13 12 40
17 40 3 0 2 -7 -1 -16z m180 -42 c20 -35 21 -42 8 -53 -12 -10 -17 -9 -27 1
-8 9 -8 11 -1 7 7 -4 15 0 18 9 3 8 2 13 -3 10 -5 -3 -18 10 -30 30 -25 42
-25 43 -5 40 9 -2 27 -21 40 -44z m-1251 18 c3 -6 -1 -7 -9 -4 -18 7 -21 14
-7 14 6 0 13 -4 16 -10z m-135 -10 c0 -5 -5 -10 -11 -10 -5 0 -7 5 -4 10 3 6
8 10 11 10 2 0 4 -4 4 -10z m1434 -46 c3 -8 2 -12 -4 -9 -6 3 -10 10 -10 16 0
14 7 11 14 -7z m-1124 2 c0 -11 -19 -15 -25 -6 -3 5 1 10 9 10 9 0 16 -2 16
-4z m-117 -33 c-4 -9 -10 -10 -25 -2 -18 10 -19 8 -13 -13 5 -20 4 -20 -5 -5
-14 22 -8 32 23 32 15 0 23 -5 20 -12z m1237 -3 c0 -5 -2 -10 -4 -10 -3 0 -8
5 -11 10 -3 6 -1 10 4 10 6 0 11 -4 11 -10z m-1503 -6 c-3 -3 -12 -4 -19 -1
-8 3 -5 6 6 6 11 1 17 -2 13 -5z m578 -4 c3 -6 -1 -7 -9 -4 -18 7 -21 14 -7
14 6 0 13 -4 16 -10z m-75 -10 c0 -5 -2 -10 -4 -10 -3 0 -8 5 -11 10 -3 6 -1
10 4 10 6 0 11 -4 11 -10z m-42 -55 c-3 -3 -9 2 -12 12 -6 14 -5 15 5 6 7 -7
10 -15 7 -18z m66 -10 c3 -9 0 -15 -9 -15 -9 0 -12 6 -9 15 4 8 7 15 9 15 2 0
5 -7 9 -15z m171 -3 c-3 -3 -11 0 -18 7 -9 10 -8 11 6 5 10 -3 15 -9 12 -12z
m155 -12 c0 -5 -8 -10 -17 -10 -15 0 -16 2 -3 10 19 12 20 12 20 0z m-403 -6
c-3 -3 -12 -4 -19 -1 -8 3 -5 6 6 6 11 1 17 -2 13 -5z m-137 -356 c0 -13 -18
-9 -23 5 -3 6 -4 2 -4 -10 2 -28 9 -29 32 -3 12 14 25 18 39 14 20 -6 20 -6 2
8 -17 14 -16 15 18 15 31 0 34 -2 24 -16 -9 -12 -7 -11 8 2 29 24 54 22 55 -5
2 -23 2 -23 6 0 4 23 5 23 19 5 10 -13 14 -14 12 -3 -4 22 119 23 133 1 9 -14
10 -14 5 1 -5 16 11 17 202 13 468 -9 674 -16 767 -26 21 -2 642 11 683 14 23
3 44 1 47 -3 4 -6 50 -6 50 0 0 14 258 19 274 6 10 -8 13 -8 8 0 -4 7 9 11 38
12 25 0 63 3 86 7 30 5 40 4 35 -4 -4 -6 -12 -8 -18 -5 -7 4 -8 2 -4 -4 5 -9
13 -9 27 -2 27 15 24 4 -11 -33 -16 -18 -30 -35 -30 -39 0 -5 -6 -8 -12 -8 -7
0 -23 -15 -36 -33 -12 -17 -43 -54 -68 -82 -26 -27 -63 -70 -82 -95 -65 -81
-112 -132 -286 -311 -176 -181 -266 -279 -266 -289 0 -6 -50 -58 -72 -76 -7
-5 -35 -37 -63 -69 -27 -32 -70 -79 -95 -105 -25 -26 -81 -89 -124 -141 -44
-52 -103 -119 -130 -150 -99 -110 -155 -175 -197 -226 -23 -29 -47 -53 -51
-53 -5 0 -6 6 -2 13 4 7 3 8 -2 4 -5 -5 -9 -16 -9 -25 0 -21 -23 -22 -54 -3
-14 9 -32 16 -40 16 -9 0 -15 5 -14 11 1 6 -5 11 -13 11 -11 0 -11 -4 3 -19
14 -16 12 -22 -9 -19 -3 0 -5 -7 -3 -17 1 -9 -7 -27 -18 -40 -21 -22 -21 -23
-2 -17 16 6 17 5 5 -4 -11 -8 -22 -3 -47 21 -24 23 -29 34 -20 40 6 4 12 15
12 25 0 10 5 25 10 33 13 20 15 41 4 34 -5 -3 -7 -9 -4 -14 5 -8 -35 -37 -42
-32 -11 7 -23 0 -17 -10 6 -9 3 -9 -9 1 -16 13 -18 35 -5 56 4 6 -2 11 -12 11
-12 0 -17 -6 -15 -18 5 -25 0 -23 -20 8 -16 24 -16 26 2 40 17 13 17 14 -1 7
-14 -5 -17 -3 -11 7 5 9 4 11 -4 6 -6 -4 -8 -12 -5 -18 4 -6 1 -8 -7 -6 -8 3
-13 11 -12 17 2 6 0 10 -5 8 -15 -4 -94 81 -87 94 5 7 4 10 -3 5 -18 -11 -157
138 -145 157 4 6 1 7 -6 3 -12 -8 -26 6 -173 164 -60 65 -295 309 -381 397
-55 55 -60 63 -47 80 10 13 10 15 1 6 -19 -17 -45 -5 -30 14 9 10 9 17 2 24
-8 8 -13 7 -18 -2 -6 -8 -4 -10 5 -4 9 5 11 4 6 -4 -6 -9 -13 -9 -29 2 -24 16
-30 44 -9 39 8 -1 11 2 7 8 -4 6 -13 9 -21 6 -8 -3 -17 1 -20 9 -4 8 -11 12
-17 8 -12 -7 -1 14 21 40 8 9 10 17 4 17 -6 0 -13 -6 -16 -12 -3 -9 -11 -6
-24 9 -14 16 -21 19 -25 10 -5 -14 18 -39 27 -30 3 4 6 1 6 -5 0 -17 -15 -15
-33 6 -16 17 -15 21 8 52 32 44 32 49 -2 19 -25 -23 -25 -22 5 20 17 24 29 48
26 53 -3 5 2 19 13 31 10 12 11 17 3 11 -15 -11 -46 -11 -58 0 -3 4 4 15 16
26 12 12 22 24 22 27 0 3 -8 -1 -18 -10 -12 -11 -22 -13 -34 -6 -11 6 -19 6
-23 -1 -6 -10 9 -15 30 -10 6 1 6 -2 2 -6 -12 -12 -37 -14 -37 -3 0 6 -5 7
-12 3 -6 -4 -4 4 5 17 18 24 37 31 48 16 3 -4 23 11 43 33 21 23 40 39 43 36
4 -3 -2 -15 -12 -26 -10 -11 -15 -20 -12 -20 4 0 9 0 12 0 3 0 5 3 6 8 1 4 11
20 22 36 12 16 16 26 9 22 -19 -12 -14 6 11 32 12 14 16 22 10 18 -21 -12 -15
5 8 25 12 10 25 16 29 14 4 -3 13 2 20 10 17 21 35 19 19 -2 -9 -11 -4 -10 15
5 15 12 33 19 39 15 5 -3 7 -1 4 4 -8 13 29 57 42 49 10 -7 24 10 27 32 3 18
-10 15 -30 -7 -10 -11 -24 -17 -31 -15 -7 3 -16 1 -20 -5 -3 -6 -1 -11 6 -11
8 0 6 -7 -5 -19 -17 -19 -62 -18 -50 1 3 5 13 7 21 4 8 -3 12 -2 9 3 -8 12 28
42 45 39 9 -2 13 4 11 17 -2 16 -1 17 7 5 10 -13 15 -8 12 12 0 4 15 0 34 -9
19 -9 35 -20 35 -25z m20 20 c0 -6 -6 -5 -15 2 -8 7 -15 14 -15 16 0 2 7 1 15
-2 8 -4 15 -11 15 -16z m-703 -13 c-15 -16 -19 -13 -11 9 3 9 10 13 15 10 5
-3 3 -11 -4 -19z m73 15 c0 -5 -4 -10 -10 -10 -5 0 -10 5 -10 10 0 6 5 10 10
10 6 0 10 -4 10 -10z m35 0 c3 -6 -1 -7 -9 -4 -18 7 -21 14 -7 14 6 0 13 -4
16 -10z m294 -35 c14 -7 19 -15 13 -19 -6 -3 -17 0 -25 8 -8 8 -18 12 -21 9
-4 -4 4 -13 16 -20 21 -12 21 -13 3 -11 -11 2 -23 7 -27 13 -5 6 -12 5 -20 -3
-10 -10 -10 -14 2 -22 8 -5 18 -6 24 -3 5 3 6 1 2 -6 -4 -6 -12 -9 -17 -6 -19
12 -50 14 -43 3 4 -6 3 -8 -3 -5 -5 3 -10 0 -10 -8 0 -11 4 -12 13 -4 14 11
36 9 46 -6 11 -16 -3 -27 -18 -14 -12 10 -18 9 -30 -4 -8 -9 -9 -12 -2 -7 17
14 25 12 25 -5 0 -17 -30 -31 -35 -16 -2 5 -11 7 -20 4 -13 -4 -12 -2 3 11 19
15 19 17 3 26 -27 16 -33 13 -34 -18 0 -30 21 -59 31 -42 4 7 13 7 24 0 14 -7
22 -3 40 20 12 17 27 30 33 30 7 0 -1 -15 -18 -32 l-29 -33 28 25 c16 14 32
24 35 23 4 -2 7 3 7 10 0 6 8 11 18 9 22 -4 22 1 -3 23 -20 18 -21 18 -14 -1
5 -15 4 -16 -4 -4 -13 17 4 44 21 33 5 -3 7 -1 4 4 -4 6 0 16 9 23 12 11 17
11 27 0 9 -9 9 -11 0 -6 -19 11 -24 -11 -6 -25 10 -9 14 -9 10 -2 -5 7 1 17
15 24 21 11 21 12 3 25 -17 12 -17 14 -2 14 9 0 17 5 17 10 0 7 6 7 18 2 9 -5
24 -7 32 -4 8 2 0 -11 -18 -30 -18 -19 -29 -37 -26 -41 4 -4 1 -13 -6 -21 -11
-14 -16 -14 -44 -1 -17 9 -23 10 -14 3 16 -12 15 -15 -9 -40 -16 -17 -21 -28
-13 -28 9 0 8 -5 -4 -19 -10 -11 -15 -24 -11 -30 3 -7 0 -8 -9 -5 -9 4 -18 -1
-22 -10 -3 -9 -11 -16 -16 -16 -6 0 -5 6 2 15 20 24 5 18 -16 -7 -10 -12 -13
-18 -6 -14 6 4 12 3 12 -2 0 -5 -6 -14 -12 -19 -16 -12 -49 -13 -42 -1 3 5 10
5 16 2 7 -5 8 -2 3 5 -4 8 4 24 21 42 15 16 30 25 34 19 3 -5 11 -1 18 10 18
29 -2 33 -32 5 -14 -13 -26 -19 -26 -14 0 6 -5 7 -12 3 -7 -4 -8 -3 -4 4 4 7
3 12 -3 12 -5 0 -13 -4 -16 -10 -3 -5 -2 -10 3 -10 11 0 9 -37 -3 -47 -4 -5
-5 -2 -1 5 4 6 2 12 -3 12 -6 0 -10 3 -10 8 4 26 -1 34 -16 22 -18 -15 -20
-35 -3 -24 7 4 8 3 4 -4 -4 -7 -3 -12 2 -12 15 0 9 -34 -10 -54 -10 -11 -18
-23 -18 -28 0 -4 -5 -8 -12 -8 -9 0 -9 3 0 12 14 14 16 32 4 24 -5 -3 -9 1 -9
9 0 7 8 12 19 10 13 -3 18 2 18 18 0 18 -2 20 -11 7 -9 -13 -10 -12 -5 3 3 11
-2 24 -14 34 -10 9 -17 20 -14 25 3 5 -11 7 -32 6 -21 -2 -39 -9 -42 -17 -3
-10 0 -11 9 -5 20 12 38 14 45 3 3 -5 0 -9 -5 -9 -6 0 -10 -3 -9 -7 1 -5 -6
-20 -16 -35 -18 -28 -46 -38 -46 -17 0 6 7 9 14 6 10 -4 13 -1 9 8 -3 8 -10
12 -15 9 -6 -4 -5 3 1 15 7 12 8 21 2 21 -5 0 -12 -9 -16 -19 -3 -12 -14 -19
-25 -18 -13 1 -16 5 -10 11 13 13 13 29 1 21 -5 -3 -13 0 -17 6 -5 8 -3 9 6 4
10 -6 12 -4 7 8 -3 9 -2 19 3 22 6 4 10 11 10 17 0 6 -7 5 -17 -3 -16 -13 -17
-12 -4 4 8 9 16 15 19 12 3 -3 11 0 19 6 9 9 17 8 27 0 10 -8 16 -9 21 -1 3 6
11 8 16 5 5 -4 15 -3 22 2 6 4 18 8 25 9 15 3 42 36 37 45 -2 3 2 6 10 6 8 0
14 -3 13 -6 -2 -19 5 -16 34 12 18 18 31 39 29 46 -2 13 0 13 13 2 16 -14 19
-10 17 24 -1 19 0 19 7 1 4 -10 19 -24 31 -31z m37 22 c8 3 12 8 9 12 -2 4 2
8 10 8 21 0 18 -9 -9 -29 -22 -16 -24 -16 -45 3 -27 25 -27 34 0 15 12 -8 28
-12 35 -9z m-326 -22 c-19 -19 -30 -35 -25 -35 5 0 4 -5 -3 -12 -20 -20 -13
-32 8 -13 10 9 18 22 17 28 -1 6 5 12 13 12 8 1 14 7 12 13 -2 10 2 10 20 0
13 -7 27 -11 31 -10 5 1 6 -2 2 -8 -3 -5 -1 -10 6 -10 7 0 2 -11 -11 -25 -28
-30 -16 -34 15 -5 17 16 22 17 22 5 0 -8 -3 -13 -5 -10 -3 3 -14 -2 -24 -12
-10 -9 -21 -13 -25 -10 -3 4 -12 2 -19 -4 -11 -9 -15 -7 -20 5 -6 16 -8 15
-28 -1 -11 -10 -9 -4 7 13 39 44 33 54 -9 13 -19 -18 -35 -29 -34 -24 5 23 -1
36 -12 29 -8 -5 -7 -1 2 10 13 16 12 20 -1 30 -9 6 -18 16 -20 21 -2 6 -8 9
-12 7 -5 -1 -5 3 -1 9 5 9 14 4 28 -14 25 -31 38 -35 34 -9 -2 11 3 16 13 14
9 -1 22 5 29 13 7 8 15 15 18 15 3 0 -9 -16 -28 -35z m-142 3 c-2 -7 3 -12 10
-10 8 1 11 -2 7 -8 -5 -8 -11 -8 -21 1 -7 6 -11 15 -8 20 8 13 14 11 12 -3z
m249 -13 c0 -8 -4 -12 -9 -9 -5 3 -6 10 -3 15 9 13 12 11 12 -6z m43 0 c7 -9
10 -18 6 -22 -3 -3 -6 -1 -6 6 0 7 -5 9 -12 5 -6 -4 -8 -3 -4 4 3 5 0 13 -6
15 -8 4 -9 6 -2 6 6 1 17 -6 24 -14z m-310 -26 c0 -6 -4 -7 -10 -4 -5 3 -10
11 -10 16 0 6 5 7 10 4 6 -3 10 -11 10 -16z m65 -7 c-2 -3 0 -14 6 -26 9 -20
9 -20 -4 -3 -15 19 -34 7 -22 -13 11 -18 -1 -11 -21 12 -10 12 -13 18 -6 14
17 -10 38 4 21 15 -10 6 -7 8 8 6 12 0 20 -3 18 -5z m368 -36 c4 -10 1 -13 -9
-9 -15 6 -19 23 -5 23 5 0 11 -7 14 -14z m-63 -110 c0 -3 -4 -8 -10 -11 -5 -3
-10 -1 -10 4 0 6 5 11 10 11 6 0 10 -2 10 -4z m-128 -29 c-29 -31 -28 -45 1
-21 l22 19 -22 -26 c-27 -30 -31 -48 -6 -28 15 13 15 12 2 -8 -9 -16 -16 -19
-21 -10 -6 9 -8 8 -8 -3 0 -13 -1 -13 -10 0 -5 8 -10 20 -10 25 0 6 5 3 10 -5
9 -13 10 -13 11 0 1 8 1 19 0 24 -2 9 38 56 47 56 3 0 -4 -10 -16 -23z m32
-108 c7 11 56 12 56 0 0 -14 -14 -18 -31 -9 -11 7 -20 7 -24 0 -3 -5 -12 -7
-20 -3 -8 3 -15 -1 -15 -8 0 -7 -3 -9 -6 -6 -4 4 -1 14 6 22 10 11 15 13 20 4
5 -8 9 -8 14 0z m74 -38 c-8 -12 -17 -18 -20 -15 -3 3 -9 1 -12 -5 -4 -6 2 -8
15 -6 12 2 19 1 15 -2 -4 -4 -18 -9 -33 -11 -21 -2 -24 0 -19 15 6 17 5 17 -8
1 -7 -10 -17 -18 -21 -18 -5 0 0 9 10 20 10 11 21 17 25 15 4 -3 15 7 25 21
11 18 20 23 27 16 7 -7 6 -17 -4 -31z m34 17 c-15 -15 -16 -32 -1 -22 17 10
-6 -25 -42 -66 -17 -19 -26 -25 -20 -14 5 12 7 25 3 29 -4 5 -2 5 5 1 13 -7
37 27 26 38 -6 6 25 46 36 46 3 0 0 -5 -7 -12z m2751 -223 c4 -8 3 -16 -1 -19
-4 -3 -9 4 -9 15 -2 23 3 25 10 4z m17 -30 c-7 -8 -17 -15 -23 -15 -6 0 -2 7
9 15 25 19 30 19 14 0z m54 -54 c-5 -7 -24 11 -35 32 -11 20 -9 20 13 -3 13
-14 23 -27 22 -29z m-151 -8 c-6 -16 -5 -17 13 -3 18 14 18 14 5 -3 -15 -19
-39 -8 -27 12 11 17 16 13 9 -6z m91 1 c13 -5 13 -8 1 -20 -18 -18 -31 -18
-16 0 9 11 9 15 -1 19 -7 3 -10 6 -6 6 3 1 13 -2 22 -5z m-114 -18 c0 -2 -8
-10 -17 -17 -16 -13 -17 -12 -4 4 13 16 21 21 21 13z m60 -50 c0 -3 -4 -8 -10
-11 -5 -3 -10 -1 -10 4 0 6 5 11 10 11 6 0 10 -2 10 -4z m-106 -21 c-4 -8 -11
-15 -16 -15 -6 0 -5 6 2 15 7 8 14 15 16 15 2 0 1 -7 -2 -15z m71 3 c5 4 5 1
1 -6 -6 -10 -11 -10 -22 -1 -8 6 -14 14 -14 16 0 3 6 0 13 -6 8 -6 18 -7 22
-3z m-51 -36 c2 -4 -4 -8 -14 -8 -10 0 -16 4 -14 8 3 4 9 8 14 8 5 0 11 -4 14
-8z m-64 -27 c0 -12 -19 -12 -23 0 -4 9 -1 12 9 8 7 -3 14 -7 14 -8z m-50 -9
c0 -2 -8 -10 -17 -17 -16 -13 -17 -12 -4 4 13 16 21 21 21 13z m11 -43 c13
-16 12 -17 -3 -4 -17 13 -22 21 -14 21 2 0 10 -8 17 -17z m59 -17 c0 -2 -8
-10 -17 -17 -16 -13 -17 -12 -4 4 13 16 21 21 21 13z m-140 -26 c0 -5 -5 -10
-11 -10 -5 0 -7 5 -4 10 3 6 8 10 11 10 2 0 4 -4 4 -10z m40 -15 c-7 -8 -17
-15 -23 -15 -6 0 -2 7 9 15 25 19 30 19 14 0z m-43 -36 c-9 -6 -15 -14 -12
-20 3 -5 -1 -6 -10 -3 -14 6 -14 8 2 20 10 7 23 13 28 13 6 0 2 -4 -8 -10z
m-27 -44 c0 -2 -9 -3 -19 -2 -11 0 -18 5 -15 9 4 6 34 0 34 -7z m-40 -30 c-7
-8 -17 -15 -23 -15 -6 0 -2 7 9 15 25 19 30 19 14 0z m137 0 c0 -8 -4 -12 -9
-9 -5 3 -6 10 -3 15 9 13 12 11 12 -6z m-197 1 c0 -3 -4 -8 -10 -11 -5 -3 -10
-1 -10 4 0 6 5 11 10 11 6 0 10 -2 10 -4z m130 -47 c0 -5 -4 -9 -8 -9 -5 0 -9
7 -9 15 0 8 4 12 9 9 4 -3 8 -9 8 -15z m-163 -16 c0 -10 -4 -10 -16 -1 -9 7
-18 13 -20 15 -2 1 5 1 16 0 11 0 20 -7 20 -14z m80 -37 c0 -8 -6 -12 -15 -9
-11 5 -11 7 0 14 7 5 13 9 14 9 0 0 1 -6 1 -14z m48 -16 c4 -6 1 -9 -6 -8 -7
2 -13 -2 -14 -9 0 -6 -4 -15 -9 -20 -6 -5 -6 -2 -1 6 6 11 4 13 -11 8 -14 -5
-12 -2 6 13 30 23 27 23 35 10z m-160 -10 c-9 -14 8 -12 25 3 12 10 12 9 1 -5
-7 -9 -21 -16 -31 -15 -14 1 -16 4 -8 14 12 15 22 17 13 3z m90 -8 c-3 -3 -11
0 -18 7 -9 10 -8 11 6 5 10 -3 15 -9 12 -12z m-30 -20 c-3 -3 -11 0 -18 7 -9
10 -8 11 6 5 10 -3 15 -9 12 -12z m9 -50 c2 -4 -5 -9 -17 -9 -17 -2 -19 0 -7
7 18 12 18 12 24 2z m93 -27 c0 -8 -4 -12 -9 -9 -5 3 -6 10 -3 15 9 13 12 11
12 -6z m-272 -4 c3 -5 2 -12 -3 -15 -5 -3 -9 1 -9 9 0 17 3 19 12 6z m25 -21
c0 -5 -5 -10 -11 -10 -5 0 -7 5 -4 10 3 6 8 10 11 10 2 0 4 -4 4 -10z m71 -33
c-6 -8 -9 -16 -6 -19 3 -2 -2 -5 -10 -5 -13 0 -13 3 2 19 19 21 31 25 14 5z
m-1 -52 c0 -2 -6 -8 -13 -14 -10 -8 -14 -7 -14 2 0 8 6 14 14 14 7 0 13 -1 13
-2z m-123 -40 c0 -8 -4 -12 -9 -9 -5 3 -6 10 -3 15 9 13 12 11 12 -6z m-77 1
c0 -2 -7 -7 -16 -10 -8 -3 -12 -2 -9 4 6 10 25 14 25 6z m47 -19 c0 -8 -6 -14
-14 -14 -9 0 -10 4 -2 14 6 7 12 13 14 13 1 0 2 -6 2 -13z m-37 -1 c0 -3 -4
-8 -10 -11 -5 -3 -10 -1 -10 4 0 6 5 11 10 11 6 0 10 -2 10 -4z m70 -40 c0 -3
-4 -8 -10 -11 -5 -3 -10 -1 -10 4 0 6 5 11 10 11 6 0 10 -2 10 -4z m-178 -48
c-12 -12 -22 -17 -22 -11 0 6 7 13 15 17 8 3 15 10 15 16 0 6 -5 8 -12 4 -7
-5 -8 -3 -3 5 5 9 10 10 18 2 8 -8 5 -17 -11 -33z m-32 8 c0 -2 -8 -10 -17
-17 -16 -13 -17 -12 -4 4 13 16 21 21 21 13z m104 -22 c3 -8 2 -12 -4 -9 -6 3
-10 10 -10 16 0 14 7 11 14 -7z m-2370 -9 c-7 -16 -24 -21 -24 -6 0 8 7 13 27
20 1 1 0 -6 -3 -14z m916 -15 c0 -4 -7 -11 -16 -14 -13 -5 -14 -4 -6 7 7 8 8
18 4 22 -4 5 -1 5 6 1 6 -4 12 -11 12 -16z m-893 -15 c0 -8 -4 -15 -9 -15 -5
0 -7 -4 -3 -9 3 -5 -4 -12 -15 -16 -11 -4 -18 -11 -15 -16 4 -5 1 -9 -5 -9 -6
0 -8 -5 -5 -10 4 -6 -10 -3 -30 7 -20 10 -31 19 -25 21 6 2 17 -1 23 -7 15
-15 24 -14 31 5 4 11 1 14 -12 10 -12 -4 -19 -1 -19 8 0 9 4 13 9 10 4 -3 8 2
8 10 0 9 5 16 11 16 6 0 9 -6 6 -14 -3 -8 -3 -17 0 -20 7 -7 33 19 33 33 0 6
4 11 8 11 5 0 9 -7 9 -15z m38 6 c-3 -6 3 -15 12 -21 15 -9 14 -10 -7 -4 -33
9 -37 13 -20 24 19 12 23 12 15 1z m42 -5 c0 -8 -6 -12 -15 -9 -11 5 -11 7 0
14 7 5 13 9 14 9 0 0 1 -6 1 -14z m-177 -26 c0 -5 -4 -10 -10 -10 -5 0 -10 5
-10 10 0 6 5 10 10 10 6 0 10 -4 10 -10z m206 -2 c4 -6 3 -8 -4 -4 -5 3 -12 0
-15 -6 -2 -7 -8 -9 -13 -5 -5 4 -2 12 6 17 19 12 17 12 26 -2z m71 -9 c-17
-10 -15 -45 3 -41 6 1 9 -2 5 -7 -6 -10 -55 6 -55 18 1 13 27 40 33 34 4 -3 7
-1 7 6 0 7 5 9 11 5 8 -5 7 -9 -4 -15z m-365 2 c-11 -7 -11 -9 2 -14 8 -3 17
-1 19 6 3 7 5 2 4 -9 -1 -20 -3 -21 -24 -7 -23 15 -23 33 0 33 8 0 8 -3 -1 -9z
m179 -24 c-15 -15 -21 -17 -19 -7 3 16 30 41 37 34 3 -3 -5 -15 -18 -27z m77
11 c9 -9 18 -9 38 1 15 6 29 10 31 7 2 -2 -5 -7 -17 -11 -21 -7 -19 -9 20 -35
23 -15 41 -30 40 -34 -1 -4 0 -10 3 -14 2 -4 2 -1 1 6 -4 14 22 16 31 2 11
-18 27 -10 22 11 -4 15 -2 19 9 15 8 -3 14 -1 14 3 0 5 7 11 15 15 12 4 13 2
5 -13 -7 -15 -5 -24 8 -38 9 -10 14 -14 10 -9 -11 14 -10 36 2 36 5 0 9 -3 9
-7 -3 -20 2 -23 17 -9 12 12 20 13 35 5 11 -5 16 -15 13 -21 -4 -7 -3 -8 4 -4
18 11 64 -24 57 -43 -5 -15 -4 -15 7 0 7 9 19 14 26 11 10 -3 8 -7 -4 -17 -16
-11 -15 -12 11 -10 28 3 29 3 11 -11 -11 -8 -25 -14 -32 -14 -19 0 -26 -17
-12 -26 7 -4 10 -3 5 1 -9 11 51 37 66 28 6 -4 7 -1 2 6 -5 9 -1 9 16 -1 31
-17 38 -28 32 -47 -4 -12 -3 -12 8 2 13 17 16 17 47 2 18 -9 30 -21 27 -26 -4
-5 0 -10 7 -11 7 0 18 -2 23 -3 6 -2 16 -3 23 -4 7 0 10 -6 6 -13 -4 -7 -3 -8
4 -4 10 6 57 -17 72 -35 3 -3 29 -16 58 -29 28 -13 52 -27 52 -32 0 -4 9 -8
19 -8 11 0 22 -4 25 -9 5 -8 94 -54 107 -55 3 -1 18 -10 33 -21 30 -23 86 -57
134 -81 17 -9 32 -20 32 -24 0 -4 34 -25 75 -46 44 -22 75 -44 75 -54 0 -13 1
-13 10 0 7 10 12 12 18 4 4 -6 25 -21 47 -33 51 -27 76 -43 93 -58 7 -7 18
-13 24 -13 5 0 8 -6 6 -12 -4 -13 30 -51 48 -55 5 -1 18 -5 29 -9 l20 -7 -20
16 c-11 9 -25 17 -31 17 -16 0 -38 29 -30 37 4 4 10 3 14 -2 4 -6 24 -19 45
-30 34 -18 41 -27 38 -47 0 -4 6 -5 13 -2 11 4 14 -2 12 -20 -4 -31 9 -35 17
-5 4 14 10 18 18 13 10 -6 10 -9 1 -12 -8 -2 -9 -9 -2 -22 7 -12 16 -17 27
-13 11 4 14 3 9 -5 -5 -8 -2 -10 8 -6 9 3 39 -11 71 -34 42 -31 51 -41 39 -46
-9 -4 -14 -9 -11 -12 3 -3 15 0 27 6 20 11 21 10 15 -12 -6 -19 -5 -21 6 -10
18 17 30 15 22 -4 -5 -14 -3 -15 14 -5 23 12 33 -1 33 -40 0 -16 5 -18 26 -13
19 5 25 4 20 -5 -4 -6 -2 -11 3 -11 6 0 11 8 11 18 1 11 6 7 17 -13 10 -18 18
-25 21 -17 2 8 8 10 15 4 7 -5 24 -12 38 -15 17 -4 31 -18 39 -36 8 -21 17
-28 28 -24 10 3 4 -4 -11 -17 -15 -12 -31 -20 -34 -16 -4 3 -1 6 5 6 7 0 12 5
12 11 0 5 -4 8 -9 4 -5 -3 -16 4 -24 15 l-14 21 -6 -21 c-4 -17 -11 -20 -29
-16 -13 3 -17 3 -9 0 11 -5 11 -8 0 -16 -11 -7 -9 -8 5 -4 21 7 86 -13 86 -27
0 -5 -6 -7 -14 -4 -11 5 -13 0 -6 -23 6 -21 4 -30 -5 -34 -10 -3 -12 0 -8 12
6 16 6 16 -10 0 -28 -28 -20 -38 17 -23 28 12 35 12 39 2 3 -8 -4 -19 -15 -26
-18 -11 -20 -11 -15 3 4 9 2 16 -2 16 -5 0 -11 -6 -14 -12 -3 -10 -9 -10 -27
0 -20 12 -22 12 -16 -3 3 -9 0 -23 -8 -31 -19 -18 -26 -18 -26 1 0 8 5 15 12
15 6 0 3 6 -7 14 -16 11 -21 11 -32 0 -7 -7 -13 -17 -13 -22 0 -6 -5 -12 -11
-14 -7 -2 -9 -13 -5 -26 7 -20 9 -20 22 -7 9 8 20 12 26 9 16 -10 -23 -36 -44
-31 -9 3 -18 1 -20 -4 -2 -6 -19 -11 -38 -12 -19 -1 -38 -6 -41 -11 -4 -4 -24
-12 -45 -16 -62 -13 -129 -33 -134 -39 -7 -9 -102 -43 -125 -46 -11 -1 -46
-15 -78 -30 -32 -15 -64 -28 -72 -29 -8 -1 -18 -5 -21 -9 -10 -9 -41 -9 -47 1
-2 4 -3 2 -1 -4 1 -7 -23 -21 -54 -32 -88 -32 -112 -36 -112 -21 0 9 -3 10 -8
4 -11 -16 -34 -17 -43 -3 -7 11 -9 11 -9 0 0 -7 -6 -20 -14 -28 -13 -12 -16
-12 -25 3 -6 10 -11 13 -11 6 0 -6 -13 -16 -29 -21 -25 -9 -31 -8 -34 6 -3 11
-5 8 -6 -8 -1 -20 -3 -22 -11 -10 -9 13 -11 13 -20 0 -9 -14 -14 -7 -11 13 1
5 -3 6 -9 2 -6 -3 -8 -10 -5 -15 3 -4 -4 -10 -15 -13 -11 -3 -20 -1 -20 4 0 5
5 9 10 9 6 0 10 8 9 18 0 10 -3 12 -6 5 -2 -7 -9 -13 -15 -13 -6 0 -8 6 -5 14
3 8 -5 18 -21 25 -23 10 -25 9 -10 -2 27 -21 30 -61 5 -77 -21 -12 -21 -12 -5
12 11 16 13 30 7 39 -8 13 -13 5 -10 -15 3 -18 -21 -37 -34 -26 -10 8 -19 5
-34 -11 -12 -13 -21 -28 -21 -33 0 -6 -5 -4 -10 4 -8 12 -11 13 -19 1 -5 -8
-11 -9 -15 -3 -4 6 0 14 8 19 11 6 12 13 6 23 -8 13 -10 13 -10 -1 0 -22 -31
-34 -42 -17 -5 8 -6 2 -2 -14 4 -18 2 -28 -5 -28 -6 0 -12 6 -12 13 -1 6 -3
25 -5 42 -2 21 0 25 6 15 11 -18 25 -6 17 14 -8 20 -38 9 -36 -13 3 -36 0 -44
-14 -32 -8 6 -17 8 -20 4 -4 -3 -7 1 -7 10 0 9 -5 19 -12 23 -7 4 -8 3 -4 -4
8 -13 -4 -15 -28 -6 -15 6 -15 7 0 19 14 9 14 14 4 20 -8 5 -11 4 -7 -2 4 -6
0 -13 -8 -17 -8 -3 -15 -1 -15 5 0 6 -5 7 -11 3 -8 -4 -7 -9 2 -14 10 -7 10
-12 1 -23 -7 -7 -8 -17 -4 -22 4 -4 0 -5 -8 -3 -8 3 -14 11 -12 18 2 10 0 11
-10 3 -9 -8 -18 -8 -31 1 -16 13 -25 32 -9 22 4 -2 15 2 25 9 10 7 14 16 9 19
-6 3 -12 0 -15 -8 -6 -15 -18 -15 -49 -1 -10 4 -16 11 -13 15 10 16 -28 3 -40
-13 -7 -9 -14 -16 -16 -14 -2 1 -3 0 -2 -2 1 -2 -2 -12 -8 -23 -7 -12 -17 -17
-29 -13 -18 6 -50 -17 -50 -36 0 -5 -5 -9 -10 -9 -6 0 -4 11 5 23 14 22 14 24
-12 36 -22 10 -25 10 -15 -2 15 -18 -13 -61 -35 -53 -12 5 -14 1 -11 -19 3
-14 1 -28 -5 -32 -6 -4 -7 -1 -2 7 6 10 3 12 -12 8 -15 -4 -20 -1 -19 11 0 9
-4 15 -11 14 -7 -2 -10 4 -7 12 4 8 10 15 16 15 5 0 7 -4 3 -9 -3 -5 -1 -12 5
-16 9 -6 14 7 11 28 0 4 4 7 10 7 5 0 7 5 3 11 -5 8 -8 8 -14 0 -5 -8 -15 -7
-36 4 -16 8 -23 15 -16 15 6 0 12 8 12 19 0 10 10 25 23 34 21 15 21 16 3 30
-13 10 -15 16 -8 21 7 4 12 2 12 -5 0 -8 4 -8 15 1 9 7 18 11 21 8 8 -9 -29
-78 -41 -78 -6 0 -11 -9 -10 -20 1 -21 15 -41 15 -22 0 7 10 10 23 8 12 -1 22
-10 22 -19 0 -25 10 -28 23 -7 10 16 10 20 -2 20 -9 0 -14 9 -13 20 1 11 5 20
9 20 4 0 8 5 8 11 0 5 -5 7 -11 3 -6 -3 -15 -1 -19 6 -10 16 10 51 24 43 5 -3
6 -1 2 5 -4 7 -2 12 4 12 6 0 9 4 5 9 -3 6 5 19 17 30 12 12 18 21 13 21 -5 0
-1 6 10 13 14 11 15 16 5 22 -9 5 -11 4 -6 -3 4 -7 3 -12 -2 -12 -5 0 -21 -18
-36 -40 -15 -23 -31 -38 -37 -34 -6 3 -3 11 7 18 13 10 14 15 4 21 -9 6 -11 4
-5 -5 5 -8 3 -11 -6 -8 -8 3 -14 10 -14 17 0 7 -8 18 -17 25 -10 7 -14 17 -10
21 4 5 1 5 -7 0 -11 -6 -9 -11 9 -25 19 -15 20 -18 6 -23 -18 -7 -22 -27 -5
-27 5 0 7 4 4 10 -3 5 -1 10 4 10 6 0 11 -9 11 -21 0 -14 -5 -19 -14 -16 -8 3
-22 -1 -33 -8 -22 -17 -33 -19 -33 -4 0 5 5 7 11 3 7 -4 10 -1 7 7 -3 8 1 26
9 41 19 39 9 35 -17 -7 -21 -34 -40 -46 -40 -24 0 5 5 7 10 4 6 -4 9 2 7 14
-4 23 -17 41 -17 22 0 -7 -5 -9 -11 -5 -16 9 11 25 33 18 17 -5 19 10 4 34 -5
8 -2 20 8 31 9 10 16 22 16 27 -1 5 -9 -1 -19 -13 -21 -25 -38 -19 -19 6 10
13 10 14 -2 3 -26 -23 -32 -12 -11 21 11 19 17 38 13 42 -4 5 -1 5 6 1 8 -5
12 0 12 16 0 22 -1 22 -19 -6 -11 -17 -18 -33 -16 -36 5 -8 -32 -50 -45 -50
-5 0 -8 9 -7 19 0 11 4 18 7 16 4 -2 14 9 24 26 9 16 14 29 9 29 -4 0 -1 5 7
11 10 7 11 9 2 7 -8 -2 -13 -7 -13 -11 1 -11 -33 -44 -41 -40 -5 2 -8 11 -8
19 0 8 5 12 10 9 6 -3 10 -4 10 -1 0 3 -8 10 -18 15 -16 8 -18 6 -16 -20 2
-31 -9 -30 -27 3 -9 16 -8 19 3 12 11 -6 11 -5 0 8 -10 13 -10 17 4 22 9 3 21
3 26 -1 7 -3 8 -1 4 5 -4 7 -1 12 9 12 9 0 13 5 10 10 -4 7 -13 6 -27 -1 -16
-9 -19 -8 -12 3 5 7 9 20 11 28 1 12 -1 11 -11 -2 -14 -20 -36 -24 -36 -8 0 6
-8 10 -17 10 -15 0 -15 2 -4 9 10 7 19 4 27 -7 10 -14 13 -13 23 6 15 28 14
33 -4 26 -8 -4 -15 -1 -15 4 0 6 9 9 19 7 11 -2 22 3 25 11 3 9 1 12 -4 9 -6
-4 -17 1 -25 9 -9 8 -23 12 -31 9 -14 -5 -15 -3 -4 17 10 18 9 24 -1 31 -8 4
-18 4 -23 -1 -19 -19 -27 -10 -12 12 11 16 13 25 4 35 -6 8 -7 13 0 13 5 0 15
-7 22 -15 11 -13 14 -13 26 2 13 17 13 17 14 1 0 -17 -10 -22 -37 -19 -22 3
-14 -8 18 -25 22 -11 28 -18 20 -24 -9 -5 -8 -9 4 -13 9 -4 13 -3 10 3 -9 15
2 12 31 -7 19 -12 22 -18 12 -24 -11 -7 -10 -9 1 -9 8 0 4 -8 -10 -20 -17 -14
-19 -18 -6 -14 11 4 17 1 17 -10 0 -9 -6 -16 -12 -16 -9 0 -8 -4 2 -10 15 -10
40 12 40 34 0 6 -4 5 -9 -2 -7 -11 -9 -11 -14 2 -4 9 1 20 11 25 14 9 14 11 2
11 -8 1 -5 5 9 11 18 7 21 12 12 23 -6 7 -8 16 -4 20 4 4 0 4 -10 0 -11 -4
-17 -1 -17 7 0 7 -3 9 -7 5 -4 -4 3 -16 17 -26 16 -13 20 -20 10 -19 -8 0 -28
10 -43 23 -25 20 -27 24 -11 30 16 6 16 8 -4 22 -12 8 -20 20 -17 25 4 5 2 9
-4 9 -5 0 -9 9 -8 20 1 22 8 25 23 11 5 -6 14 -4 21 4 9 10 5 12 -20 11 -24
-1 -33 -7 -37 -26 -3 -13 -12 -26 -19 -28 -9 -3 -11 2 -6 18 7 21 6 21 -19 4
-31 -20 -46 -12 -22 11 9 9 16 25 16 35 0 10 7 21 16 24 8 3 12 10 9 16 -8 13
1 13 28 -1 20 -9 20 -9 5 4 -10 8 -15 17 -11 20 3 4 13 1 21 -6 11 -9 11 -4
-2 16 -20 29 -29 35 -20 13 3 -8 -3 -19 -16 -26 -11 -6 -18 -16 -14 -22 4 -6
1 -9 -7 -6 -19 6 -18 30 1 46 8 8 9 11 3 7 -7 -3 -22 -8 -34 -10 -11 -2 -29
-7 -40 -10 -11 -4 -19 -2 -19 5 0 6 5 8 10 5 6 -3 10 -1 10 6 0 7 3 10 6 6 4
-3 20 1 36 9 16 8 34 12 41 8 7 -4 4 2 -6 13 -17 20 -17 23 -2 52 8 17 13 31
11 31 -3 0 -13 -14 -21 -30 -10 -19 -20 -28 -28 -24 -7 4 -3 -2 7 -14 20 -23
9 -31 -12 -10 -9 9 -15 9 -24 -1 -11 -10 -10 -11 3 -6 10 4 20 2 24 -4 3 -6 3
-11 -2 -12 -4 0 -17 -2 -29 -3 -16 -2 -20 2 -17 15 3 9 -1 20 -8 24 -8 5 -10
4 -5 -3 5 -8 2 -10 -9 -6 -9 4 -13 9 -11 12 3 3 0 12 -7 20 -8 11 -8 14 0 9 6
-4 13 -1 16 5 3 10 7 10 20 -1 9 -7 14 -17 11 -22 -3 -5 -3 -9 0 -9 3 0 10 8
15 19 9 15 7 18 -7 17 -9 0 -16 5 -14 12 2 10 -2 10 -17 2 -22 -11 -41 -13
-26 -2 6 4 16 17 22 29 11 19 10 21 -2 17 -17 -7 -19 9 -5 36 8 16 7 18 -4 14
-8 -3 -17 -1 -21 5 -4 7 5 12 22 12 23 2 24 2 6 6 -27 5 -28 7 -6 39 16 25 16
27 0 36 -9 5 -17 14 -17 19 0 6 5 7 12 3 7 -4 8 -3 4 4 -9 15 18 55 29 44 5
-4 5 -1 1 6 -5 8 -16 10 -29 7 -12 -4 -17 -3 -11 2 15 11 26 55 11 46 -6 -4
-8 0 -4 10 3 9 3 16 -1 16 -27 -4 -32 1 -20 21 9 14 19 18 33 14 17 -6 16 -3
-5 15 -14 13 -19 20 -12 16 11 -6 17 7 13 29 -1 5 5 4 13 -3 8 -7 21 -11 28
-8 8 4 7 6 -4 6 -21 1 -23 12 -5 30 10 11 8 11 -10 0 -18 -11 -25 -11 -35 -1
-6 6 -15 12 -19 12 -11 0 -18 -39 -8 -46 5 -3 9 5 9 18 0 18 2 20 10 8 13 -21
12 -27 -6 -34 -8 -3 -21 0 -28 6 -11 11 -11 17 1 35 8 12 13 27 11 33 -2 6
-13 -8 -25 -31 -15 -30 -19 -47 -12 -55 14 -18 -4 -26 -33 -15 -12 6 -17 10
-9 10 8 1 11 7 7 17 -3 8 -2 12 4 9 9 -6 14 8 11 28 -1 5 3 6 8 3 11 -7 32 49
23 60 -4 4 -1 4 6 0 11 -6 14 0 11 20 -1 8 22 24 34 24 4 0 3 -9 -3 -19 -10
-20 4 -41 17 -27 4 3 1 6 -6 6 -8 0 -7 5 3 16 9 8 13 21 9 27 -4 7 0 8 13 3
10 -4 15 -4 11 1 -4 4 6 14 23 23 l31 16 -25 12 c-16 7 -26 8 -26 2 0 -6 8
-10 17 -10 11 0 3 -8 -17 -19 -36 -19 -51 -12 -30 14 10 12 9 16 -3 21 -19 7
-18 41 1 49 7 3 10 9 7 15 -8 13 5 13 25 0 11 -7 11 -10 2 -10 -7 0 -11 -4 -8
-9 3 -5 -1 -12 -10 -15 -8 -3 -12 -11 -8 -17 7 -12 43 26 44 46 0 6 7 18 14
28 12 15 18 16 35 7 11 -6 20 -14 20 -18 -3 -19 2 -26 10 -13 8 12 13 12 36
-3 15 -10 29 -16 31 -14 2 3 -33 25 -78 50 -67 36 -85 42 -95 32 -7 -7 -13
-19 -13 -26 0 -9 2 -10 8 -1 5 8 12 8 26 -3 17 -12 17 -14 3 -20 -16 -6 -52
13 -57 30 -1 5 5 13 14 18 24 14 19 30 -6 23 -20 -5 -21 -4 -5 5 9 6 22 8 27
5 6 -3 10 -1 10 4 0 6 4 11 10 11 5 0 7 -7 4 -15 -10 -26 12 -16 24 10 6 14
16 25 21 25 11 0 72 -62 67 -68 -7 -7 -65 31 -60 39 2 4 -1 11 -8 15 -7 4 -10
4 -6 -1 4 -4 3 -16 -2 -26 -7 -12 -7 -20 0 -24 5 -3 10 -1 10 4 0 6 5 11 11
11 6 0 8 -7 5 -16 -4 -12 -1 -14 13 -9 14 4 21 0 23 -12 4 -15 7 -13 18 10 15
31 27 35 32 10 3 -16 4 -16 10 -2 4 11 -1 20 -18 28 -19 8 -23 8 -18 0 4 -7 1
-10 -7 -7 -8 3 -13 10 -12 17 2 6 -15 20 -37 31 -49 25 -53 34 -6 15 22 -9 36
-11 39 -5 3 6 4 5 3 -2 -2 -11 72 -59 91 -58 4 1 -9 10 -30 21 -22 11 -37 23
-34 26 3 2 14 0 25 -6 12 -6 24 -11 29 -11 4 1 -8 9 -27 20 -19 11 -29 19 -22
20 31 1 -1 18 -34 18 -25 0 -33 -3 -23 -9 8 -5 9 -9 3 -9 -31 0 -23 37 10 50
29 12 30 12 44 -2z m2202 8 c0 -2 -8 -10 -17 -17 -16 -13 -17 -12 -4 4 13 16
21 21 21 13z m-2454 -43 c-6 -6 -36 9 -36 18 0 5 9 4 20 -3 10 -7 18 -14 16
-15z m436 20 c-6 -2 -10 -8 -7 -13 3 -5 -4 -12 -16 -15 -17 -6 -19 -9 -8 -16
8 -5 10 -9 4 -9 -26 0 -35 16 -19 36 8 10 13 13 9 7 -3 -7 -2 -13 3 -13 6 0
12 7 16 15 3 8 11 15 18 14 10 0 10 -2 0 -6z m-347 -13 c3 -5 2 -10 -4 -10 -5
0 -13 5 -16 10 -3 6 -2 10 4 10 5 0 13 -4 16 -10z m993 -15 c-3 -3 -9 2 -12
12 -6 14 -5 15 5 6 7 -7 10 -15 7 -18z m-1043 6 c-3 -6 3 -14 12 -20 10 -6 14
-10 8 -11 -19 0 -38 18 -31 29 4 6 9 11 12 11 3 0 3 -4 -1 -9z m1604 -27 c-6
-8 -16 -14 -21 -14 -7 0 -6 5 1 13 6 8 8 17 4 21 -4 4 0 4 10 0 14 -5 15 -9 6
-20z m761 22 c0 -2 -8 -10 -17 -17 -16 -13 -17 -12 -4 4 13 16 21 21 21 13z
m-2420 -26 c0 -5 -2 -10 -4 -10 -3 0 -8 5 -11 10 -3 6 -1 10 4 10 6 0 11 -4
11 -10z m153 -3 c-3 -5 -14 -7 -24 -4 -10 3 -20 0 -22 -7 -2 -6 -8 -7 -13 -3
-5 4 -3 11 3 15 16 10 62 9 56 -1z m1653 1 c4 -7 3 -10 -1 -5 -5 4 -20 0 -34
-9 l-26 -15 24 20 c27 25 28 25 37 9z m-1746 -18 c0 -5 -5 -10 -11 -10 -5 0
-7 5 -4 10 3 6 8 10 11 10 2 0 4 -4 4 -10z m1783 -26 c-3 -8 -12 -13 -20 -10
-8 3 -11 2 -8 -4 3 -5 -9 -25 -26 -45 -28 -32 -34 -34 -47 -21 -10 9 -12 21
-7 33 5 10 8 21 7 24 -2 11 42 47 63 51 26 6 45 -9 38 -28z m537 -18 c0 -2 -7
-7 -16 -10 -8 -3 -12 -2 -9 4 6 10 25 14 25 6z m-2310 -16 c0 -5 -5 -10 -11
-10 -5 0 -7 5 -4 10 3 6 8 10 11 10 2 0 4 -4 4 -10z m85 0 c3 -5 -1 -10 -9
-10 -9 0 -16 5 -16 10 0 6 4 10 9 10 6 0 13 -4 16 -10z m2093 -11 c3 -12 2
-12 -6 0 -6 8 -15 10 -22 6 -9 -5 -11 -4 -6 4 10 15 28 10 34 -10z m-2212 -1
c5 -8 2 -9 -9 -5 -9 3 -19 2 -22 -3 -4 -6 -11 -10 -18 -10 -11 0 23 29 35 30
4 0 10 -5 14 -12z m-1 -28 c-3 -5 -12 -10 -18 -10 -7 0 -6 4 3 10 19 12 23 12
15 0z m-105 -4 c0 -3 -4 -8 -10 -11 -5 -3 -10 -1 -10 4 0 6 5 11 10 11 6 0 10
-2 10 -4z m150 -3 c0 -5 -7 -16 -15 -27 -10 -13 -11 -24 -5 -37 12 -22 13 -29
2 -29 -8 0 -10 6 -14 49 -2 21 -29 22 -36 1 -3 -8 0 -10 8 -5 9 5 11 4 6 -3
-4 -7 -3 -12 1 -12 16 0 9 -36 -7 -37 -9 -1 -17 5 -17 12 0 8 4 12 9 9 4 -3 8
-1 8 5 0 18 -19 22 -28 5 -8 -15 -10 -15 -15 0 -4 10 -3 15 2 12 4 -3 14 6 21
20 8 13 20 22 27 20 7 -3 13 -1 13 5 0 6 5 7 10 4 6 -3 10 -1 10 4 0 6 5 11
10 11 6 0 10 -3 10 -7z m-103 -35 c-3 -8 -6 -5 -6 6 -1 11 2 17 5 13 3 -3 4
-12 1 -19z m2203 18 c0 -2 -8 -10 -17 -17 -16 -13 -17 -12 -4 4 13 16 21 21
21 13z m-2196 -98 c-3 -4 -9 -8 -15 -8 -5 0 -9 4 -9 8 0 5 7 9 15 9 8 0 12 -4
9 -9z m16 -18 c0 -5 -5 -10 -11 -10 -5 0 -7 5 -4 10 3 6 8 10 11 10 2 0 4 -4
4 -10z m30 -20 c0 -5 -4 -10 -10 -10 -5 0 -10 -7 -10 -15 0 -8 -4 -15 -10 -15
-5 0 -10 -7 -10 -17 0 -9 -3 -14 -6 -10 -4 3 -3 14 1 24 5 10 7 24 6 32 -1 7
2 10 8 6 6 -3 11 -1 11 4 0 6 5 11 10 11 6 0 10 -4 10 -10z m2045 -40 c-3 -5
-16 -15 -28 -21 -21 -10 -21 -9 2 10 25 23 36 27 26 11z m-2107 -54 c-7 -8
-15 -12 -17 -11 -5 6 10 25 20 25 5 0 4 -6 -3 -14z m82 -46 c14 -11 19 -20 12
-20 -7 0 -11 -4 -8 -9 3 -5 -1 -12 -9 -15 -8 -3 -14 -11 -13 -17 2 -6 -3 -14
-11 -17 -10 -3 -12 0 -8 11 3 9 3 18 -1 20 -4 2 -1 2 7 0 9 -2 12 3 8 17 -3
11 -1 18 4 14 16 -10 9 9 -8 22 -10 7 -13 13 -8 13 6 1 21 -8 35 -19z m24 -86
c3 -8 1 -24 -4 -34 -14 -26 -13 -30 7 -30 14 0 14 -3 5 -12 -10 -10 -15 -10
-21 1 -7 11 -13 7 -25 -15 -20 -38 -21 -22 -1 17 16 30 10 64 -6 38 -6 -10 -8
-7 -6 8 0 12 4 20 8 17 4 -2 9 3 13 11 7 20 22 19 30 -1z m-69 -14 c3 -5 1
-10 -4 -10 -6 0 -11 5 -11 10 0 6 2 10 4 10 3 0 8 -4 11 -10z m14 -62 c-5 -10
-11 -18 -12 -18 -2 0 -3 8 -3 18 0 10 6 19 13 19 8 0 9 -6 2 -19z m46 -28 c-3
-5 -11 -10 -16 -10 -6 0 -7 5 -4 10 3 6 11 10 16 10 6 0 7 -4 4 -10z m-25 -40
c-6 -11 -13 -20 -16 -20 -2 0 0 9 6 20 6 11 13 20 16 20 2 0 0 -9 -6 -20z m32
-34 c-9 -17 -20 -32 -24 -34 -5 -2 -8 -8 -8 -13 0 -6 5 -7 10 -4 6 3 10 -1 10
-9 0 -8 -5 -18 -12 -22 -7 -4 -8 -3 -4 4 4 7 2 12 -5 12 -7 0 -9 8 -4 23 3 12
7 28 7 35 1 6 5 12 10 12 5 0 6 5 3 10 -9 15 4 30 20 24 13 -5 12 -11 -3 -38z
m-587 4 c3 -5 1 -10 -4 -10 -6 0 -11 5 -11 10 0 6 2 10 4 10 3 0 8 -4 11 -10z
m-188 -16 c-3 -3 -12 -4 -19 -1 -8 3 -5 6 6 6 11 1 17 -2 13 -5z m-27 -49 c0
-5 -5 -3 -10 5 -5 8 -10 20 -10 25 0 6 5 3 10 -5 5 -8 10 -19 10 -25z m190 15
c0 -5 -5 -10 -11 -10 -5 0 -7 5 -4 10 3 6 8 10 11 10 2 0 4 -4 4 -10z m-147
-45 c-3 -9 -8 -14 -10 -11 -3 3 -2 9 2 15 9 16 15 13 8 -4z m759 -33 c-7 -2
-12 -10 -12 -18 0 -22 -16 -16 -17 6 -1 11 2 18 7 15 5 -3 11 -1 15 5 3 5 -2
10 -12 10 -15 0 -16 2 -3 10 10 6 17 4 24 -7 6 -11 5 -18 -2 -21z m-442 -52
c0 -5 -2 -10 -4 -10 -3 0 -8 5 -11 10 -3 6 -1 10 4 10 6 0 11 -4 11 -10z
m-726 -36 c3 -8 2 -12 -4 -9 -6 3 -10 10 -10 16 0 14 7 11 14 -7z m371 -14 c3
-6 -1 -7 -9 -4 -18 7 -21 14 -7 14 6 0 13 -4 16 -10z m884 -66 c-13 -7 -23
-16 -21 -20 2 -5 -2 -10 -10 -12 -10 -3 -10 -1 1 6 11 8 10 12 -5 22 -16 10
-16 11 -1 6 9 -3 17 -1 17 5 0 6 5 7 10 4 6 -3 10 -1 10 5 0 6 5 8 11 4 8 -4
3 -11 -12 -20z m16 -44 c-8 -16 -21 -32 -27 -36 -9 -5 -9 -3 1 9 7 9 10 17 5
17 -4 0 -3 5 3 11 6 6 9 18 6 25 -4 10 0 12 11 8 14 -5 14 -9 1 -34z m-708 14
c-3 -3 -12 -4 -19 -1 -8 3 -5 6 6 6 11 1 17 -2 13 -5z m-542 -44 c3 -5 1 -10
-4 -10 -6 0 -11 5 -11 10 0 6 2 10 4 10 3 0 8 -4 11 -10z m476 -23 c-10 -9
-11 -8 -5 6 3 10 9 15 12 12 3 -3 0 -11 -7 -18z m43 7 c3 -8 2 -12 -4 -9 -6 3
-10 10 -10 16 0 14 7 11 14 -7z m176 -34 c0 -5 -5 -10 -11 -10 -5 0 -7 5 -4
10 3 6 8 10 11 10 2 0 4 -4 4 -10z m545 -20 c3 -5 1 -10 -4 -10 -6 0 -11 5
-11 10 0 6 2 10 4 10 3 0 8 -4 11 -10z m110 1 c7 -12 -12 -24 -25 -16 -11 7
-4 25 10 25 5 0 11 -4 15 -9z m-720 -11 c3 -5 1 -10 -4 -10 -6 0 -11 5 -11 10
0 6 2 10 4 10 3 0 8 -4 11 -10z m2825 -20 c0 -5 -4 -10 -10 -10 -5 0 -10 5
-10 10 0 6 5 10 10 10 6 0 10 -4 10 -10z m-2910 -4 c0 -3 -4 -8 -10 -11 -5 -3
-10 -1 -10 4 0 6 5 11 10 11 6 0 10 -2 10 -4z m2980 -16 c-8 -5 -19 -10 -25
-10 -5 0 -3 5 5 10 8 5 20 10 25 10 6 0 3 -5 -5 -10z m-3533 -14 c-2 -6 -11
-12 -20 -14 -11 -2 -15 1 -12 11 7 16 37 19 32 3z m222 -9 c0 -9 -2 -9 -5 0
-3 7 -13 9 -22 6 -14 -4 -14 -3 -2 5 16 12 30 7 29 -11z m423 11 c-8 -8 -9
-15 0 -25 8 -11 7 -12 -6 -7 -10 4 -16 1 -16 -7 0 -7 -2 -10 -5 -7 -8 8 17 58
29 58 6 0 6 -4 -2 -12z m673 -28 c-3 -5 -12 -10 -18 -10 -7 0 -6 4 3 10 19 12
23 12 15 0z m2213 -8 c2 -7 -1 -12 -7 -12 -6 0 -11 4 -11 10 0 5 -8 7 -17 4
-15 -5 -16 -4 -3 5 17 12 32 10 38 -7z m-2938 -12 c0 -5 -4 -10 -10 -10 -5 0
-10 5 -10 10 0 6 5 10 10 10 6 0 10 -4 10 -10z m-543 -31 c6 -2 -5 -12 -25
-22 l-37 -18 25 20 c23 19 24 21 5 22 -11 1 -24 1 -30 0 -5 -1 -1 6 10 14 17
13 21 13 30 2 5 -8 15 -16 22 -18z m603 3 c0 -5 -7 -17 -15 -28 -14 -18 -14
-17 -4 9 12 27 19 34 19 19z m-395 -22 c-10 -11 -23 -20 -28 -20 -6 0 0 9 13
20 13 11 25 20 28 20 3 0 -3 -9 -13 -20z m499 1 c4 -5 -3 -7 -14 -4 -23 6 -26
13 -6 13 8 0 17 -4 20 -9z m-694 -11 c0 -5 -7 -10 -15 -10 -10 0 -12 -6 -8
-17 6 -15 4 -16 -9 -6 -8 7 -17 12 -19 10 -2 -1 5 6 16 15 23 20 35 23 35 8z
m635 0 c3 -5 1 -10 -4 -10 -6 0 -11 5 -11 10 0 6 2 10 4 10 3 0 8 -4 11 -10z
m590 0 c-3 -5 -12 -10 -18 -10 -7 0 -6 4 3 10 19 12 23 12 15 0z m-1325 -4 c0
-2 -7 -7 -16 -10 -8 -3 -12 -2 -9 4 6 10 25 14 25 6z m3410 -25 c0 -5 -7 -11
-15 -15 -15 -5 -20 5 -8 17 9 10 23 9 23 -2z m-3190 -5 c0 -3 -4 -8 -10 -11
-5 -3 -10 -1 -10 4 0 6 5 11 10 11 6 0 10 -2 10 -4z m85 -10 c12 -12 12 -16 0
-26 -8 -7 -12 -16 -9 -21 3 -5 -3 -6 -12 -2 -16 6 -16 7 1 19 15 11 16 16 5
29 -16 19 -3 20 15 1z m-320 -8 c5 4 5 1 1 -6 -5 -9 -12 -10 -20 -3 -7 6 -17
6 -26 1 -8 -6 -19 -10 -25 -9 -5 0 1 6 15 14 15 8 29 10 36 4 6 -5 15 -5 19
-1z m87 -12 c10 6 10 4 0 -9 -12 -14 -16 -14 -28 -2 -8 7 -14 20 -14 27 1 8 6
7 15 -6 8 -11 19 -15 27 -10z m319 -18 c7 -14 6 -16 -6 -12 -8 3 -12 11 -8 17
4 6 0 8 -9 4 -12 -4 -14 -1 -10 15 5 20 8 18 33 -24z m959 32 c0 -5 -2 -10 -4
-10 -3 0 -8 5 -11 10 -3 6 -1 10 4 10 6 0 11 -4 11 -10z m-1073 -6 c-3 -3 -12
-4 -19 -1 -8 3 -5 6 6 6 11 1 17 -2 13 -5z m-132 -14 c3 -5 1 -10 -4 -10 -6 0
-11 5 -11 10 0 6 2 10 4 10 3 0 8 -4 11 -10z m65 6 c0 -2 -7 -7 -16 -10 -8 -3
-12 -2 -9 4 6 10 25 14 25 6z m527 -18 c-3 -8 -6 -5 -6 6 -1 11 2 17 5 13 3
-3 4 -12 1 -19z m-502 -8 c-3 -5 -13 -6 -22 -3 -12 5 -14 3 -8 -7 6 -9 4 -11
-5 -5 -10 6 -9 11 5 21 19 14 39 9 30 -6z m575 -9 c0 -6 -4 -13 -10 -16 -5 -3
-10 1 -10 9 0 9 5 16 10 16 6 0 10 -4 10 -9z m561 -8 c11 -15 11 -16 -1 -5
-21 18 -34 15 -19 -5 13 -16 12 -17 -3 -4 -10 7 -15 17 -12 22 8 14 20 11 35
-8z m-1038 -16 c13 -20 13 -24 1 -24 -8 0 -12 2 -9 5 2 3 0 13 -6 23 -14 27
-4 24 14 -4z m444 -14 c-3 -10 -5 -4 -5 12 0 17 2 24 5 18 2 -7 2 -21 0 -30z
m-529 2 c-3 -3 -9 2 -12 12 -6 14 -5 15 5 6 7 -7 10 -15 7 -18z m168 13 c4 -7
4 -10 -1 -6 -4 4 -17 3 -29 -3 -20 -10 -20 -10 -2 5 24 19 23 19 32 4z m-113
-21 c12 -19 13 -24 2 -24 -8 0 -14 3 -13 6 2 21 -4 31 -14 25 -7 -4 -8 -3 -4
4 10 16 11 15 29 -11z m-157 -34 c-7 -7 -30 18 -34 37 -2 9 5 6 18 -8 12 -13
20 -26 16 -29z m1264 42 c0 -7 -30 -13 -34 -7 -3 4 4 9 15 9 10 1 19 0 19 -2z
m-1341 -32 c10 -22 10 -25 -2 -15 -17 14 -28 6 -20 -16 4 -10 2 -13 -5 -8 -6
3 -13 2 -17 -4 -3 -5 -1 -10 6 -10 7 0 10 -3 6 -6 -3 -3 -11 -3 -17 1 -7 4 -4
15 8 33 11 15 17 33 15 40 -9 24 14 12 26 -15z m385 -24 c-3 -5 0 -9 5 -9 6 0
11 -7 11 -15 0 -8 -5 -15 -11 -15 -5 0 -8 4 -4 9 10 16 -15 23 -33 10 -12 -10
-12 -7 3 9 16 20 17 26 7 45 -12 20 -11 20 7 -2 12 -12 18 -27 15 -32z m361
31 c3 -6 -1 -7 -9 -4 -10 4 -16 1 -16 -7 0 -7 -3 -10 -6 -6 -7 7 4 27 16 27 5
0 12 -4 15 -10z m666 -25 c3 2 11 -5 18 -17 12 -19 11 -20 -5 -14 -10 4 -21 1
-25 -6 -6 -9 -8 -6 -7 7 0 11 -3 29 -6 40 -7 19 -7 19 7 3 8 -10 16 -16 18
-13z m-1195 3 c4 -7 3 -8 -4 -4 -15 9 -16 -6 -1 -21 7 -7 5 -12 -8 -17 -9 -4
-14 -4 -11 0 4 4 3 15 -2 25 -7 12 -6 19 3 22 6 3 13 6 14 6 1 1 5 -4 9 -11z
m81 -5 c-4 -3 -1 -13 6 -22 11 -14 10 -14 -5 -2 -16 12 -16 31 -1 31 4 0 3 -3
0 -7z m463 -13 c0 -5 -5 -10 -11 -10 -5 0 -7 5 -4 10 3 6 8 10 11 10 2 0 4 -4
4 -10z m125 -1 c11 -16 1 -19 -13 -3 -7 8 -8 14 -3 14 5 0 13 -5 16 -11z
m-155 -14 c0 -8 -2 -15 -4 -15 -2 0 -6 7 -10 15 -3 8 -1 15 4 15 6 0 10 -7 10
-15z m100 -5 c0 -5 -5 -10 -11 -10 -5 0 -7 5 -4 10 3 6 8 10 11 10 2 0 4 -4 4
-10z m-910 -11 c0 -5 4 -8 8 -5 5 3 9 -1 9 -8 0 -8 -6 -12 -13 -9 -16 6 -27
33 -14 33 6 0 10 -5 10 -11z m345 -10 c-6 -18 -4 -19 13 -10 11 6 22 8 25 5 3
-3 15 -1 26 6 12 6 26 8 32 5 15 -10 -22 -34 -41 -27 -11 4 -11 0 4 -16 10
-12 24 -19 30 -15 6 4 3 -3 -7 -14 -9 -11 -14 -23 -10 -28 5 -4 1 -5 -7 -1 -8
4 -6 -1 5 -11 11 -10 18 -17 16 -16 -2 2 -9 -5 -16 -14 -9 -13 -14 -13 -20 -3
-5 9 -4 11 3 6 7 -4 12 -3 12 2 0 14 -26 33 -33 25 -4 -3 -7 -1 -7 6 0 8 -7
10 -19 6 -11 -3 -22 -1 -26 5 -3 5 -11 10 -18 10 -8 0 -8 -3 0 -11 6 -6 9 -18
6 -27 -5 -11 -3 -13 8 -7 12 7 12 6 1 -7 -11 -14 -11 -22 2 -47 10 -19 12 -32
6 -36 -6 -4 -10 -3 -9 2 4 22 -3 31 -20 26 -10 -3 -22 0 -26 6 -3 6 -3 11 2
10 20 -3 34 2 28 11 -3 5 -12 7 -19 4 -10 -4 -14 2 -12 20 0 14 8 28 16 32 12
4 10 8 -9 18 -15 9 -20 16 -12 20 6 4 11 3 11 -3 0 -6 6 -8 14 -5 8 3 12 12 9
20 -3 8 0 14 7 14 6 0 8 -4 5 -10 -8 -13 1 -13 28 1 21 10 21 10 -1 -8 -24
-20 -21 -36 5 -26 8 3 23 6 34 7 11 1 19 4 19 9 0 4 0 12 0 17 0 6 -6 9 -12 8
-8 -2 -12 5 -10 15 3 15 0 17 -17 8 -22 -12 -34 -1 -25 23 9 24 16 19 9 -5z
m-225 -3 c0 -3 -4 -8 -10 -11 -5 -3 -10 -1 -10 4 0 6 5 11 10 11 6 0 10 -2 10
-4z m1333 -17 c-8 -8 -13 -7 -18 2 -5 8 -4 10 3 5 7 -4 12 -2 12 5 0 7 3 9 7
6 4 -4 2 -12 -4 -18z m-968 -9 c-3 -5 1 -10 7 -13 7 -2 1 -4 -14 -4 -16 0 -28
4 -28 9 0 5 -6 6 -12 3 -7 -4 -5 0 5 9 19 14 52 11 42 -4z m386 -13 c-10 -9
-11 -8 -5 6 3 10 9 15 12 12 3 -3 0 -11 -7 -18z m89 -2 c-7 -9 -15 -13 -17
-11 -6 6 20 36 26 30 2 -2 -2 -10 -9 -19z m-853 -36 c-1 -19 -2 -19 -14 -3 -7
9 -10 21 -7 26 9 14 23 -1 21 -23z m816 18 c3 -8 -1 -14 -8 -14 -7 0 -11 6 -8
14 3 7 6 13 8 13 2 0 5 -6 8 -13z m-916 -29 c13 -12 27 -17 35 -13 7 4 5 0 -4
-10 -20 -22 -51 -13 -41 11 4 11 2 15 -4 11 -5 -4 -18 -1 -28 7 -17 12 -17 13
1 13 11 0 29 -8 41 -19z m3663 6 c0 -2 -7 -4 -15 -4 -8 0 -15 4 -15 10 0 5 7
7 15 4 8 -4 15 -8 15 -10z m-2733 -34 c-12 -22 -26 -40 -30 -40 -5 0 -1 10 7
22 12 17 13 25 3 37 -10 12 -9 14 6 8 9 -3 17 -2 17 3 0 6 4 10 9 10 5 0 0
-18 -12 -40z m-473 22 c3 -5 -1 -9 -9 -9 -8 0 -12 4 -9 9 3 4 7 8 9 8 2 0 6
-4 9 -8z m1049 -7 c4 -8 1 -17 -5 -21 -7 -4 -8 -3 -4 4 4 7 2 12 -4 12 -6 0
-8 5 -5 10 8 14 12 13 18 -5z m35 -25 c-7 -11 -16 -20 -20 -20 -5 0 -8 -6 -8
-14 0 -8 -5 -18 -12 -22 -8 -5 -9 -2 -5 9 6 16 -8 34 -16 20 -2 -5 -2 -2 -1 5
2 6 -1 12 -7 12 -6 0 -7 5 -4 10 4 6 13 4 23 -6 15 -15 17 -15 30 5 18 27 37
28 20 1z m-1575 -2 c3 -8 -5 -14 -20 -14 -22 -2 -23 -1 -6 12 22 17 20 16 26
2z m409 -18 c6 0 8 -3 5 -6 -10 -11 -38 17 -30 30 5 7 9 5 11 -6 2 -10 8 -18
14 -18z m142 22 c2 -4 -4 -8 -15 -8 -10 0 -19 4 -19 8 0 4 6 8 14 8 8 0 17 -4
20 -8z m1096 -17 c0 -8 -9 -13 -21 -12 -18 1 -18 3 -5 13 9 6 12 15 8 19 -4 5
-1 5 6 1 6 -4 12 -13 12 -21z m235 -15 c-2 -4 7 -12 20 -18 22 -10 24 -14 13
-37 -7 -15 -17 -24 -25 -21 -7 3 -13 1 -13 -4 0 -6 5 -10 10 -10 6 0 5 -6 -2
-14 -7 -8 -17 -11 -22 -8 -5 3 -7 -2 -3 -11 3 -10 2 -17 -2 -17 -19 0 -19 29
-1 35 18 6 19 8 5 35 -14 26 -13 30 3 39 9 6 12 11 5 11 -6 0 -14 -4 -18 -10
-3 -5 -12 -7 -19 -4 -15 6 -32 -13 -21 -24 3 -3 10 0 14 7 5 7 11 9 13 5 3 -5
-3 -17 -14 -26 -10 -10 -18 -13 -18 -7 0 5 -5 7 -10 4 -8 -5 -8 -11 0 -20 8
-9 8 -15 0 -20 -5 -3 -10 -1 -10 6 0 7 -8 2 -19 -9 -23 -27 -30 -28 -28 -3 0
11 4 18 7 16 3 -1 11 3 17 11 10 10 9 16 -9 28 -12 9 -18 16 -12 16 5 0 15 -5
21 -11 9 -9 19 1 42 37 17 26 31 52 31 56 0 5 11 1 25 -8 14 -9 23 -20 20 -24z
m-402 9 c-8 -8 -13 -7 -18 2 -5 8 -4 10 3 5 7 -4 12 -2 12 5 0 7 3 9 7 6 4 -4
2 -12 -4 -18z m-1383 1 c0 -4 -7 -7 -15 -6 -23 3 -26 12 -5 13 11 1 20 -2 20
-7z m410 0 c0 -5 -5 -10 -11 -10 -5 0 -7 -5 -3 -12 4 -7 3 -8 -4 -4 -6 4 -9
13 -5 21 6 17 23 20 23 5z m100 -15 c0 -12 -19 -12 -23 0 -4 9 -1 12 9 8 7 -3
14 -7 14 -8z m-340 -25 c-13 -11 -19 -25 -15 -32 3 -7 -1 -4 -11 7 l-16 20 5
-20 c2 -11 8 -28 12 -37 4 -11 3 -18 -5 -18 -6 0 -8 5 -4 11 4 8 0 9 -15 4
-12 -4 -21 -2 -21 4 0 6 5 11 11 11 5 0 3 10 -5 22 -20 28 -21 44 -2 29 10 -9
20 -9 40 0 14 7 26 16 26 21 0 5 5 6 10 3 7 -4 3 -14 -10 -25z m3255 11 c-3
-6 -11 -11 -16 -11 -5 0 -4 6 3 14 14 16 24 13 13 -3z m-3069 -48 c-6 -15 10
-27 25 -17 7 4 7 10 1 16 -12 12 -5 38 10 38 6 0 8 -9 5 -19 -3 -13 -1 -18 8
-15 7 3 12 16 10 30 -3 26 10 33 19 9 3 -8 1 -15 -4 -15 -5 0 -7 -6 -4 -13 3
-8 -12 -25 -35 -40 -48 -32 -54 -33 -47 -9 3 9 1 23 -3 31 -8 12 -12 12 -24 2
-12 -9 -16 -9 -21 1 -3 7 -5 4 -2 -8 2 -12 -2 -21 -9 -21 -17 0 -13 29 5 43 8
7 21 9 30 6 12 -4 13 -2 3 9 -23 24 -14 29 12 7 14 -12 23 -28 21 -35z m165
30 c-12 -20 -14 -14 -5 12 4 9 9 14 11 11 3 -2 0 -13 -6 -23z m359 17 c8 -5
11 -10 5 -10 -5 0 -17 5 -25 10 -8 5 -10 10 -5 10 6 0 17 -5 25 -10z m1040 0
c0 -5 7 -7 15 -4 8 4 15 1 15 -6 0 -7 7 -10 15 -6 9 3 15 0 15 -10 0 -9 -5
-12 -12 -8 -8 5 -9 -3 -5 -29 3 -21 2 -37 -4 -37 -5 0 -8 3 -8 8 1 4 -2 21 -6
39 -5 21 -15 33 -31 37 -26 7 -33 26 -9 26 8 0 15 -4 15 -10z m250 -10 c0 -5
-4 -10 -10 -10 -5 0 -10 5 -10 10 0 6 5 10 10 10 6 0 10 -4 10 -10z m-1967
-17 c-7 -3 -9 -11 -6 -19 3 -8 1 -14 -5 -14 -6 0 -9 8 -7 18 2 9 4 21 4 25 1
5 6 5 13 1 9 -6 9 -9 1 -11z m1482 -1 c-3 -3 -11 0 -18 7 -9 10 -8 11 6 5 10
-3 15 -9 12 -12z m1875 8 c0 -5 -7 -10 -16 -10 -8 0 -12 5 -9 10 3 6 10 10 16
10 5 0 9 -4 9 -10z m-3625 -12 c5 4 5 2 1 -5 -8 -14 -36 -6 -36 9 0 7 5 6 13
-1 8 -6 18 -7 22 -3z m1522 -11 c-2 -6 6 -20 17 -30 12 -10 16 -16 9 -13 -6 4
-13 3 -16 -1 -2 -5 -2 -3 -1 4 4 15 -24 25 -29 10 -3 -7 -4 -2 -4 10 1 12 5
19 11 16 5 -4 7 1 3 11 -4 11 -3 15 4 11 5 -4 8 -12 6 -18z m402 0 c1 15 33
25 54 17 13 -5 14 -10 5 -29 -6 -13 -17 -26 -26 -30 -12 -4 -12 -1 2 19 19 30
20 36 4 36 -6 0 -9 -3 -5 -6 3 -3 -6 -19 -21 -35 -22 -25 -28 -27 -39 -16 -12
11 -12 19 -1 41 11 25 13 26 19 9 4 -10 8 -13 8 -6z m151 13 c0 -5 -5 -10 -11
-10 -5 0 -7 5 -4 10 3 6 8 10 11 10 2 0 4 -4 4 -10z m-1910 -21 c0 -18 -20
-18 -29 0 -9 16 -8 18 9 14 11 -3 20 -9 20 -14z m3235 11 c3 -5 1 -10 -4 -10
-6 0 -11 5 -11 10 0 6 2 10 4 10 3 0 8 -4 11 -10z m155 6 c0 -3 -4 -8 -10 -11
-5 -3 -10 -1 -10 4 0 6 5 11 10 11 6 0 10 -2 10 -4z m85 -6 c-3 -5 -12 -10
-18 -10 -7 0 -6 4 3 10 19 12 23 12 15 0z m-3085 -4 c0 -2 -6 -9 -14 -15 -11
-9 -16 -9 -22 0 -4 7 -3 9 4 5 6 -3 13 -2 17 4 6 10 15 14 15 6z m2815 -6 c-3
-5 -12 -10 -18 -10 -7 0 -6 4 3 10 19 12 23 12 15 0z m-2771 -12 c-3 -5 -10
-6 -15 -3 -5 4 -9 1 -9 -4 0 -6 -6 -10 -12 -8 -13 2 -15 -13 -6 -43 3 -8 3
-12 1 -7 -3 4 -9 5 -14 2 -5 -4 -6 0 -3 8 3 8 0 18 -6 22 -8 5 -3 13 14 25 28
17 59 23 50 8z m1086 -14 c0 -2 -9 0 -20 6 -11 6 -20 13 -20 16 0 2 9 0 20 -6
11 -6 20 -13 20 -16z m370 16 c0 -5 -5 -10 -11 -10 -5 0 -7 5 -4 10 3 6 8 10
11 10 2 0 4 -4 4 -10z m30 0 c0 -5 -4 -10 -10 -10 -5 0 -10 5 -10 10 0 6 5 10
10 10 6 0 10 -4 10 -10z m1245 0 c3 -5 1 -10 -4 -10 -6 0 -11 5 -11 10 0 6 2
10 4 10 3 0 8 -4 11 -10z m-3421 -16 c3 -8 2 -12 -4 -9 -6 3 -10 10 -10 16 0
14 7 11 14 -7z m328 -20 c-4 -22 -2 -26 11 -21 9 3 19 1 23 -5 4 -6 3 -8 -3
-5 -6 4 -14 -1 -17 -10 -6 -14 -9 -12 -22 11 -10 20 -11 33 -4 41 5 6 6 16 2
20 -4 5 -2 5 4 2 6 -4 9 -19 6 -33z m265 21 c0 -8 -4 -15 -9 -15 -10 0 -11 14
-1 23 9 10 10 9 10 -8z m120 2 c0 -8 -6 -14 -14 -14 -9 0 -10 4 -2 14 6 7 12
13 14 13 1 0 2 -6 2 -13z m2814 -14 c-12 -20 -14 -14 -5 12 4 9 9 14 11 11 3
-2 0 -13 -6 -23z m-3031 12 c0 -2 -10 -10 -22 -16 -21 -11 -22 -11 -9 4 13 16
31 23 31 12z m1594 -19 c-6 -16 -24 -23 -24 -8 0 10 22 33 27 28 2 -2 1 -11
-3 -20z m1296 9 c0 -8 -2 -15 -4 -15 -2 0 -6 7 -10 15 -3 8 -1 15 4 15 6 0 10
-7 10 -15z m108 1 c-7 -8 -15 -12 -17 -11 -5 6 10 25 20 25 5 0 4 -6 -3 -14z
m-3232 -4 c6 -4 13 -15 17 -24 5 -13 0 -16 -22 -13 -25 3 -28 1 -25 -21 3 -30
-11 -31 -27 -1 -11 20 -11 21 5 8 16 -13 17 -13 14 5 -2 15 2 18 20 17 26 -3
27 0 6 21 -16 16 -8 22 12 8z m99 -2 c-3 -5 -12 -10 -18 -10 -7 0 -6 4 3 10
19 12 23 12 15 0z m1383 -10 c-14 -22 -38 -35 -38 -20 0 6 5 10 10 10 6 0 10
7 10 15 0 8 7 15 15 15 13 0 13 -3 3 -20z m-1708 0 c0 -5 -2 -10 -4 -10 -3 0
-8 5 -11 10 -3 6 -1 10 4 10 6 0 11 -4 11 -10z m84 -6 c5 -14 4 -15 -9 -4 -17
14 -19 20 -6 20 5 0 12 -7 15 -16z m69 1 c4 -8 3 -16 -1 -19 -4 -3 -9 4 -9 15
-2 23 3 25 10 4z m367 5 c8 -5 11 -10 6 -10 -6 0 -1 -7 10 -16 13 -11 15 -17
6 -20 -6 -3 -10 -10 -7 -15 4 -5 0 -7 -7 -4 -18 7 -42 -10 -34 -23 4 -6 14 -9
24 -6 15 5 14 4 -1 -6 -10 -7 -20 -10 -21 -8 -29 40 -45 82 -36 92 9 8 11 6 8
-9 -2 -15 2 -19 16 -17 11 2 15 -1 11 -7 -10 -18 11 -12 26 6 10 11 10 14 2 9
-7 -4 -13 -3 -13 3 0 6 -8 8 -17 4 -15 -5 -15 -3 2 11 11 10 14 15 8 11 -7 -3
-13 -1 -13 4 0 13 10 14 30 1z m520 6 c0 -3 -4 -8 -10 -11 -5 -3 -10 -1 -10 4
0 6 5 11 10 11 6 0 10 -2 10 -4z m-643 -26 c-1 -12 -5 -16 -10 -11 -5 5 -6 14
-3 20 11 16 15 13 13 -9z m187 -5 c20 -30 20 -35 0 -35 -9 0 -12 5 -8 12 4 7
3 8 -4 4 -6 -4 -9 -13 -5 -22 5 -13 8 -13 27 -1 19 13 22 13 22 -3 0 -10 -6
-16 -13 -13 -7 3 -25 -3 -41 -12 -15 -10 -22 -12 -15 -5 6 7 9 18 6 25 -2 8 0
23 7 34 8 16 8 21 -1 19 -6 -2 -14 3 -16 10 -8 22 24 12 41 -13z m113 -3 c0
-10 -10 -19 -20 -19 -18 -2 -18 -1 -2 11 11 8 15 18 10 26 -5 8 -4 11 3 6 6
-3 10 -14 9 -24z m1026 3 c-7 -21 -12 -19 -10 4 0 11 5 18 9 15 4 -3 5 -11 1
-19z m1521 13 c-3 -4 -9 -8 -15 -8 -5 0 -9 4 -9 8 0 5 7 9 15 9 8 0 12 -4 9
-9z m-2179 -9 c11 -16 1 -19 -13 -3 -7 8 -8 14 -3 14 5 0 13 -5 16 -11z m740
1 c3 -5 1 -10 -4 -10 -6 0 -11 5 -11 10 0 6 2 10 4 10 3 0 8 -4 11 -10z m1635
6 c0 -3 -4 -8 -10 -11 -5 -3 -10 -1 -10 4 0 6 5 11 10 11 6 0 10 -2 10 -4z
m-365 -26 c-4 -11 -2 -20 4 -20 6 0 11 -4 11 -10 0 -5 -6 -10 -14 -10 -18 0
-25 31 -11 47 15 18 17 16 10 -7z m-1327 -10 c-7 -10 -14 -18 -15 -16 -6 6 9
36 18 36 5 0 4 -9 -3 -20z m1412 10 c0 -5 -5 -10 -11 -10 -5 0 -7 5 -4 10 3 6
8 10 11 10 2 0 4 -4 4 -10z m85 0 c3 -5 1 -10 -4 -10 -6 0 -11 5 -11 10 0 6 2
10 4 10 3 0 8 -4 11 -10z m-1375 -10 c0 -5 -2 -10 -4 -10 -3 0 -8 5 -11 10 -3
6 -1 10 4 10 6 0 11 -4 11 -10z m-1620 -13 c0 -7 -9 -13 -20 -13 -22 0 -27 12
-7 19 21 9 27 8 27 -6z m188 -1 c-10 -7 -16 -15 -13 -17 2 -3 -5 -5 -15 -6
-11 -1 -20 3 -20 8 0 6 -5 7 -12 3 -7 -4 -8 -3 -4 4 4 6 13 9 21 6 7 -3 22 -1
32 5 25 15 31 13 11 -3z m286 -13 c-8 -9 -18 -12 -22 -8 -4 4 -1 10 6 12 6 3
10 9 7 14 -4 5 1 6 9 3 14 -5 14 -8 0 -21z m2256 7 c0 -5 -4 -10 -10 -10 -5 0
-10 5 -10 10 0 6 5 10 10 10 6 0 10 -4 10 -10z m242 -22 c-7 -7 -12 -8 -12 -2
0 14 12 26 19 19 2 -3 -1 -11 -7 -17z m-2576 -15 c-1 -18 4 -28 14 -29 30 -2
32 -4 20 -19 -6 -8 -9 -18 -6 -24 3 -5 -1 -12 -10 -15 -10 -4 -13 -2 -8 7 4 7
3 9 -2 4 -5 -5 -9 -14 -9 -20 0 -5 -7 -12 -15 -15 -8 -3 -12 -1 -8 3 4 4 3 16
-3 26 -7 15 -6 21 6 25 19 8 20 21 0 21 -8 0 -15 -5 -15 -11 0 -6 -7 -3 -14 6
-7 10 -16 15 -19 12 -3 -4 -5 3 -4 15 1 11 2 21 3 21 15 0 32 -15 27 -24 -3
-6 -4 -9 0 -6 3 3 5 8 4 12 -2 5 30 35 39 38 1 0 1 -12 0 -27z m2264 17 c0 -5
-5 -10 -11 -10 -5 0 -7 5 -4 10 3 6 8 10 11 10 2 0 4 -4 4 -10z m120 0 c-20
-13 -33 -13 -25 0 3 6 14 10 23 10 15 0 15 -2 2 -10z m510 0 c0 -5 -4 -10 -10
-10 -5 0 -10 5 -10 10 0 6 5 10 10 10 6 0 10 -4 10 -10z m-3372 -14 c-10 -7
-14 -17 -10 -21 4 -5 1 -5 -7 0 -12 7 -11 10 4 22 24 17 36 17 13 -1z m3146
-26 c-3 -2 -9 2 -14 10 -8 13 -10 13 -10 1 0 -8 -2 -12 -5 -9 -3 3 -3 13 1 22
6 15 7 15 19 -1 8 -10 11 -20 9 -23z m156 26 c0 -3 -4 -8 -10 -11 -5 -3 -10
-1 -10 4 0 6 5 11 10 11 6 0 10 -2 10 -4z m-3469 -23 c13 -16 12 -17 -3 -4
-10 7 -18 15 -18 17 0 8 8 3 21 -13z m244 7 c-3 -5 -12 -10 -18 -10 -7 0 -6 4
3 10 19 12 23 12 15 0z m488 -21 c-9 -9 -12 -7 -10 9 1 14 5 18 11 12 7 -7 6
-14 -1 -21z m2061 0 c-31 -12 -40 -9 -20 6 10 8 24 11 29 8 6 -4 2 -10 -9 -14z
m-2689 1 c-3 -5 -12 -10 -18 -10 -7 0 -6 4 3 10 19 12 23 12 15 0z m363 -15
c-3 -3 -9 2 -12 12 -6 14 -5 15 5 6 7 -7 10 -15 7 -18z m-238 0 c-7 -8 -20
-15 -29 -15 -11 1 -8 5 9 15 32 18 35 18 20 0z m-50 1 c0 -2 -7 -7 -16 -10 -8
-3 -12 -2 -9 4 6 10 25 14 25 6z m415 -5 c3 -6 -4 -15 -15 -21 -17 -9 -20 -8
-20 10 0 20 24 28 35 11z m2335 -1 c0 -5 -7 -10 -15 -10 -18 0 -19 -12 -3 -28
9 -9 8 -12 -6 -12 -10 0 -14 4 -10 12 5 8 2 9 -9 5 -10 -3 -17 -2 -17 4 0 6
-4 7 -10 4 -5 -3 -10 -1 -10 5 0 7 6 10 13 7 7 -3 21 1 32 9 22 16 35 18 35 4z
m-228 -18 c-7 -2 -12 -11 -12 -20 0 -8 -3 -13 -6 -9 -10 10 7 48 19 40 8 -5 8
-8 -1 -11z m93 -2 c3 -5 -4 -6 -15 -3 -11 3 -22 9 -25 13 -3 5 4 6 15 3 11 -3
22 -9 25 -13z m-2388 -2 c-2 -7 4 -28 15 -45 16 -27 17 -32 4 -27 -9 3 -13 10
-10 16 3 5 -2 8 -11 6 -10 -2 -20 3 -23 11 -3 8 0 11 7 7 6 -4 11 -2 11 3 0 6
-4 11 -10 11 -5 0 -10 7 -10 15 0 8 7 15 16 15 9 0 14 -6 11 -12z m2573 3 c0
-5 -12 -11 -27 -14 -26 -5 -26 -4 -8 9 22 16 35 18 35 5z m-2705 -11 c3 -5 1
-10 -4 -10 -6 0 -11 5 -11 10 0 6 2 10 4 10 3 0 8 -4 11 -10z m225 6 c0 -2 -7
-7 -16 -10 -8 -3 -12 -2 -9 4 6 10 25 14 25 6z m2127 -18 c-3 -8 -6 -5 -6 6
-1 11 2 17 5 13 3 -3 4 -12 1 -19z m123 18 c0 -3 -4 -8 -10 -11 -5 -3 -10 -1
-10 4 0 6 5 11 10 11 6 0 10 -2 10 -4z m75 -6 c3 -5 1 -10 -4 -10 -6 0 -11 5
-11 10 0 6 2 10 4 10 3 0 8 -4 11 -10z m-2844 -23 c-10 -9 -11 -8 -5 6 3 10 9
15 12 12 3 -3 0 -11 -7 -18z m321 5 c-7 -2 -10 -8 -7 -13 4 -5 -1 -6 -9 -3
-12 5 -13 9 -3 19 7 7 16 10 22 7 5 -3 4 -7 -3 -10z m212 3 c-4 -8 -11 -12
-16 -9 -6 4 -5 10 3 15 19 12 19 11 13 -6z m-318 -34 c-4 -6 -12 -11 -17 -11
-6 0 -7 4 -4 10 4 6 -1 7 -12 4 -17 -5 -17 -5 -1 9 10 8 16 16 14 19 -1 3 4 0
12 -7 8 -7 11 -18 8 -24z m2384 29 c-20 -13 -33 -13 -25 0 3 6 14 10 23 10 15
0 15 -2 2 -10z m194 -9 c-5 -3 -12 -10 -15 -14 -4 -4 -9 -1 -13 8 -3 9 -2 13
4 10 6 -3 10 -1 10 5 0 6 5 8 11 4 6 -3 7 -9 3 -13z m-2428 -26 c-2 -7 1 -18
7 -24 6 -6 7 -11 2 -11 -6 0 -4 -4 4 -9 9 -6 5 -8 -15 -8 -26 0 -27 0 -9 13
11 8 13 14 6 14 -8 0 -10 7 -6 20 4 11 2 20 -4 20 -6 0 -11 5 -11 11 0 8 5 7
15 -1 9 -7 14 -19 11 -25z m-92 11 c-6 -17 12 -31 21 -16 3 5 12 10 18 10 7 0
4 -7 -6 -15 -11 -7 -25 -11 -33 -8 -8 3 -16 -2 -20 -10 -3 -9 -11 -15 -17 -13
-7 1 -8 1 -3 -2 4 -2 2 -9 -5 -14 -15 -11 -5 -8 35 8 16 6 17 5 7 -15 -7 -12
-16 -19 -21 -16 -5 3 -20 1 -32 -6 -18 -9 -21 -9 -11 1 13 14 6 43 -8 34 -5
-3 -9 0 -9 5 0 6 5 11 11 11 5 0 8 4 5 9 -3 5 1 12 10 15 9 4 13 2 8 -5 -4 -8
0 -7 15 0 22 12 30 27 9 16 -7 -4 -4 1 6 9 24 20 27 20 20 2z m473 -7 c-9 -6
-15 -14 -12 -19 3 -5 -3 -14 -14 -20 -34 -18 -33 7 1 34 18 14 35 23 38 20 2
-3 -3 -10 -13 -15z m1913 11 c0 -5 -2 -10 -4 -10 -3 0 -8 5 -11 10 -3 6 -1 10
4 10 6 0 11 -4 11 -10z m200 0 c0 -5 -4 -10 -10 -10 -5 0 -10 5 -10 10 0 6 5
10 10 10 6 0 10 -4 10 -10z m-230 -35 c0 -5 -5 -3 -10 5 -5 8 -10 20 -10 25 0
6 5 3 10 -5 5 -8 10 -19 10 -25z m390 25 c0 -5 -5 -10 -11 -10 -5 0 -7 5 -4
10 3 6 8 10 11 10 2 0 4 -4 4 -10z m-420 -4 c0 -3 -4 -8 -10 -11 -5 -3 -10 -1
-10 4 0 6 5 11 10 11 6 0 10 -2 10 -4z m-2175 -14 c6 -4 11 -12 12 -19 4 -17
-24 -5 -31 13 -6 15 3 18 19 6z m59 -33 c-8 -14 -21 -11 -21 5 0 8 6 12 14 9
7 -3 10 -9 7 -14z m137 -11 c-10 -11 -11 -9 -5 6 6 15 4 17 -6 11 -9 -6 -11
-4 -5 4 5 9 10 10 18 2 8 -8 7 -14 -2 -23z m1903 24 c2 -4 0 -14 -6 -22 -8
-12 -9 -12 -5 2 3 9 1 19 -6 22 -9 3 -9 5 0 5 6 1 14 -3 17 -7z m-1840 -38 c3
-8 2 -12 -4 -9 -6 3 -10 10 -10 16 0 14 7 11 14 -7z m1606 7 c0 -5 -11 -11
-25 -13 -14 -3 -25 -3 -25 -1 0 3 34 19 48 22 1 1 2 -3 2 -8z m-1925 -11 c3
-6 -1 -7 -9 -4 -18 7 -21 14 -7 14 6 0 13 -4 16 -10z m-35 -10 c0 -5 -4 -10
-10 -10 -5 0 -10 5 -10 10 0 6 5 10 10 10 6 0 10 -4 10 -10z m210 0 c0 -5 -2
-10 -4 -10 -3 0 -8 5 -11 10 -3 6 -1 10 4 10 6 0 11 -4 11 -10z m65 0 c-3 -6
-21 -17 -38 -26 -36 -19 -31 -9 10 17 34 21 36 22 28 9z m155 -44 c0 -5 -7 -1
-15 10 -8 10 -14 24 -14 29 0 6 6 1 14 -9 8 -11 15 -24 15 -30z m-336 19 c-4
-8 -11 -12 -16 -9 -6 4 -5 10 3 15 19 12 19 11 13 -6z m274 2 c6 0 12 -5 12
-10 0 -5 -7 -7 -15 -3 -8 3 -15 1 -15 -5 0 -6 -5 -7 -10 -4 -6 4 -8 10 -5 15
3 4 2 10 -2 13 -5 2 -1 2 7 -1 8 -2 21 -5 28 -5z m1422 -17 c0 -5 -5 -10 -11
-10 -5 0 -7 5 -4 10 3 6 8 10 11 10 2 0 4 -4 4 -10z"/>
<path d="M1766 4961 c-4 -5 -2 -12 3 -15 5 -4 12 -2 15 3 4 5 2 12 -3 15 -5 4
-12 2 -15 -3z"/>
<path d="M3044 4772 c4 -3 14 -7 22 -8 9 -1 13 0 10 4 -4 3 -14 7 -22 8 -9 1
-13 0 -10 -4z"/>
<path d="M3139 4745 c14 -30 40 -61 41 -50 0 6 -12 24 -26 40 -14 17 -21 21
-15 10z"/>
<path d="M3327 4563 c-4 -3 -7 -11 -7 -16 0 -6 3 -7 7 -4 3 4 13 1 21 -6 13
-10 14 -9 3 11 -13 24 -14 25 -24 15z"/>
<path d="M3033 4713 c9 -14 -2 -45 -14 -37 -5 3 -9 0 -9 -6 0 -6 -4 -9 -9 -5
-15 8 -25 -15 -12 -28 14 -14 14 -30 0 -22 -6 4 -9 0 -7 -8 2 -9 -4 -22 -12
-29 -8 -7 -13 -12 -11 -11 2 2 11 -3 19 -10 12 -9 14 -9 8 0 -4 7 2 20 13 29
14 12 17 22 11 34 -10 19 -2 34 23 38 21 4 22 -7 1 -23 -15 -11 -15 -12 0 -12
8 0 18 9 22 19 3 10 9 16 14 13 13 -8 21 27 9 42 -7 7 -14 11 -17 8 -3 -3 -12
1 -20 8 -11 8 -14 8 -9 0z m25 -48 c-3 -3 -9 2 -12 12 -6 14 -5 15 5 6 7 -7
10 -15 7 -18z"/>
<path d="M3124 4575 c5 -15 4 -16 -9 -5 -23 19 -18 -2 10 -35 13 -16 24 -25
25 -18 0 6 -5 15 -10 18 -6 4 -8 15 -5 25 3 10 0 22 -6 26 -9 5 -10 2 -5 -11z"/>
<path d="M3174 4578 c19 -26 21 -42 5 -32 -8 4 -8 0 0 -15 14 -25 22 -28 15
-3 -5 16 -5 16 9 0 29 -36 27 -17 -3 27 -17 25 -33 45 -36 45 -3 0 2 -10 10
-22z"/>
<path d="M3247 4496 c-3 -8 -2 -18 3 -21 13 -8 24 15 12 27 -6 6 -11 4 -15 -6z"/>
<path d="M3269 4463 c-1 -5 -1 -12 0 -17 1 -5 -5 -4 -13 4 -18 14 -22 0 -4
-18 9 -9 14 -7 24 6 16 21 17 32 4 32 -5 0 -11 -3 -11 -7z"/>
<path d="M3340 4440 c6 -11 13 -20 16 -20 2 0 0 9 -6 20 -6 11 -13 20 -16 20
-2 0 0 -9 6 -20z"/>
<path d="M2500 3906 c7 -7 13 -7 20 0 6 6 3 10 -10 10 -13 0 -16 -4 -10 -10z"/>
<path d="M4501 3898 c-14 -23 -14 -23 8 -4 22 20 25 26 13 26 -4 0 -13 -10
-21 -22z"/>
<path d="M4527 3894 c-10 -13 -14 -24 -10 -24 9 0 36 40 31 45 -2 2 -11 -8
-21 -21z"/>
<path d="M4608 3896 c-15 -21 -15 -23 0 -23 9 0 22 3 27 8 6 4 19 1 29 -7 17
-12 15 -18 -6 -16 -13 2 -31 -29 -22 -37 5 -5 25 9 45 30 20 22 33 39 29 39
-3 0 -11 -5 -18 -12 -16 -16 -16 4 1 22 6 8 2 6 -10 -3 -20 -18 -22 -18 -32 0
-6 10 -11 14 -11 8 0 -6 -4 -5 -8 1 -5 8 -12 5 -24 -10z"/>
<path d="M4585 3900 c-4 -6 -11 -7 -17 -4 -7 4 -8 2 -4 -5 6 -9 11 -9 22 0 14
11 18 19 10 19 -3 0 -8 -5 -11 -10z"/>
<path d="M2269 3888 c-5 -18 -6 -38 -1 -34 7 8 12 36 6 36 -2 0 -4 -1 -5 -2z"/>
<path d="M2345 3880 c-3 -5 -1 -10 4 -10 6 0 11 5 11 10 0 6 -2 10 -4 10 -3 0
-8 -4 -11 -10z"/>
<path d="M2171 3853 c3 -31 -1 -39 -11 -23 -7 12 -9 10 -7 -7 1 -20 3 -21 18
-7 10 9 15 24 12 35 -7 24 -15 25 -12 2z"/>
<path d="M2210 3855 c-15 -18 1 -26 23 -10 15 10 15 14 3 18 -8 3 -20 0 -26
-8z"/>
<path d="M2122 3825 c4 -4 -2 -22 -14 -39 -12 -17 -15 -25 -7 -19 9 7 20 9 24
5 5 -4 5 -1 1 6 -4 7 -3 19 4 27 8 10 8 15 -2 21 -7 4 -10 4 -6 -1z"/>
<path d="M2180 3799 c0 -5 5 -7 10 -4 6 3 10 8 10 11 0 2 -4 4 -10 4 -5 0 -10
-5 -10 -11z"/>
<path d="M4615 3800 c3 -5 8 -10 11 -10 2 0 4 5 4 10 0 6 -5 10 -11 10 -5 0
-7 -4 -4 -10z"/>
<path d="M2149 3773 c-13 -16 -12 -17 4 -4 9 7 17 15 17 17 0 8 -8 3 -21 -13z"/>
<path d="M2005 3770 c-11 -5 -16 -9 -11 -9 5 -1 1 -11 -10 -23 -10 -13 -4 -10
14 6 17 17 32 31 32 33 0 4 0 4 -25 -7z"/>
<path d="M2041 3767 c-8 -10 -7 -14 2 -14 8 0 14 6 14 14 0 7 -1 13 -2 13 -2
0 -8 -6 -14 -13z"/>
<path d="M1979 3703 c-13 -16 -12 -17 4 -4 9 7 17 15 17 17 0 8 -8 3 -21 -13z"/>
<path d="M2076 3708 c3 -5 10 -6 15 -3 13 9 11 12 -6 12 -8 0 -12 -4 -9 -9z"/>
<path d="M1999 3613 l-24 -28 28 24 c25 23 32 31 24 31 -2 0 -14 -12 -28 -27z"/>
<path d="M1903 3603 c0 -9 4 -10 14 -2 7 6 13 12 13 14 0 1 -6 2 -13 2 -8 0
-14 -6 -14 -14z"/>
<path d="M1946 3612 c-3 -5 1 -9 9 -9 8 0 12 4 9 9 -3 4 -7 8 -9 8 -2 0 -6 -4
-9 -8z"/>
<path d="M1933 3579 c9 -6 14 -15 11 -21 -4 -7 -2 -8 5 -4 14 9 -3 36 -23 36
-6 0 -3 -5 7 -11z"/>
<path d="M1979 3563 c-13 -16 -12 -17 4 -4 9 7 17 15 17 17 0 8 -8 3 -21 -13z"/>
<path d="M1910 3515 c-13 -14 -22 -27 -19 -29 2 -2 14 10 27 25 29 36 24 38
-8 4z"/>
<path d="M2014 3518 l-19 -23 23 19 c21 18 27 26 19 26 -2 0 -12 -10 -23 -22z"/>
<path d="M1959 3423 c-13 -16 -12 -17 4 -4 9 7 17 15 17 17 0 8 -8 3 -21 -13z"/>
<path d="M1940 3375 c-11 -13 -11 -18 0 -28 10 -9 11 -9 6 1 -4 7 -2 19 4 27
7 8 10 15 7 15 -2 0 -10 -7 -17 -15z"/>
<path d="M1906 3362 c-2 -4 -1 -14 4 -22 7 -11 9 -9 7 8 -1 24 -3 26 -11 14z"/>
<path d="M2914 2458 l-19 -23 23 19 c12 11 22 21 22 23 0 8 -8 2 -26 -19z"/>
<path d="M3017 2323 c-16 -16 -19 -16 -28 -3 -9 13 -10 13 -6 0 2 -8 -2 -22
-9 -30 -9 -11 -10 -20 -3 -30 9 -13 10 -12 6 2 -7 20 17 43 35 32 7 -4 10 -3
5 1 -4 5 0 17 10 27 21 23 13 24 -10 1z"/>
<path d="M3200 2305 c0 -2 6 -8 13 -14 10 -8 14 -7 14 2 0 8 -6 14 -14 14 -7
0 -13 -1 -13 -2z"/>
<path d="M3135 2281 c-3 -5 -2 -12 3 -15 5 -3 9 1 9 9 0 17 -3 19 -12 6z"/>
<path d="M3045 2271 c-3 -5 -2 -12 3 -15 5 -3 9 1 9 9 0 17 -3 19 -12 6z"/>
<path d="M3202 2254 c11 -11 21 -14 26 -9 4 6 6 9 3 8 -2 -1 -13 3 -25 9 -20
10 -20 10 -4 -8z"/>
<path d="M3025 2230 c-3 -5 0 -7 8 -4 30 11 27 -17 -2 -34 -17 -9 -31 -21 -31
-26 0 -5 3 -6 6 -3 4 3 14 2 24 -3 21 -11 34 -2 20 15 -7 9 -6 16 5 25 12 10
13 16 4 26 -13 16 -25 18 -34 4z"/>
<path d="M2035 3890 c3 -5 11 -10 16 -10 6 0 7 5 4 10 -3 6 -11 10 -16 10 -6
0 -7 -4 -4 -10z"/>
<path d="M1760 3780 c-11 -7 -11 -10 -2 -10 7 0 11 -4 7 -10 -8 -13 -36 0 -28
14 3 6 -2 4 -13 -5 -12 -10 -34 -15 -59 -13 -22 2 -34 0 -27 -2 17 -8 15 -27
-3 -21 -8 4 -17 2 -20 -3 -4 -6 -2 -10 4 -10 5 0 8 -11 6 -25 -1 -14 -1 -24 0
-23 2 2 17 20 33 41 20 24 33 34 37 26 6 -8 9 -8 15 1 6 9 13 9 29 1 12 -7 18
-17 15 -23 -4 -7 -3 -8 4 -4 7 4 12 2 12 -5 0 -8 4 -8 15 1 12 10 13 15 3 21
-6 4 -16 5 -20 3 -10 -6 -11 10 -1 20 6 6 14 36 10 36 -1 0 -9 -5 -17 -10z
m-109 -63 l-24 -22 19 27 c10 14 21 24 23 22 3 -3 -6 -15 -18 -27z"/>
<path d="M1680 3695 c-9 -11 -10 -19 -3 -26 13 -13 35 12 24 29 -6 10 -11 9
-21 -3z"/>
<path d="M1676 3861 c-4 -6 -2 -11 5 -11 7 0 5 -8 -6 -20 -11 -12 -13 -20 -6
-20 7 0 9 -5 5 -12 -4 -7 5 -2 20 11 25 23 31 44 12 41 -5 -1 -12 4 -16 10 -5
9 -9 9 -14 1z m20 -39 c-18 -16 -18 -16 -6 6 6 13 14 21 18 18 3 -4 -2 -14
-12 -24z"/>
<path d="M1567 2256 c-4 -10 -1 -13 8 -9 8 3 12 9 9 14 -7 12 -11 11 -17 -5z"/>
<path d="M1616 2235 c13 -10 15 -14 5 -15 -8 0 -12 -2 -9 -5 3 -3 13 -2 23 1
17 7 17 8 -1 21 -10 7 -22 13 -28 13 -5 0 -1 -7 10 -15z"/>
<path d="M1657 2213 c-4 -3 -2 -12 4 -20 6 -7 8 -13 3 -13 -5 0 2 -10 16 -21
21 -17 21 -20 5 -14 -16 5 -18 4 -7 -6 8 -9 15 -10 23 -2 8 8 6 15 -8 24 -21
16 -32 56 -12 43 8 -4 10 -3 5 4 -8 13 -19 15 -29 5z"/>
<path d="M1866 2185 c-3 -8 -1 -15 4 -15 13 0 22 18 11 24 -5 3 -11 -1 -15 -9z"/>
<path d="M1782 2173 c-8 -15 -6 -18 13 -18 19 0 21 3 12 15 -6 8 -12 17 -13
18 -1 2 -7 -5 -12 -15z"/>
<path d="M1842 2151 c-11 -7 -10 -9 3 -14 9 -4 14 -3 10 2 -3 5 1 12 7 14 7 3
9 6 3 6 -5 0 -16 -3 -23 -8z"/>
<path d="M1925 2151 c-3 -5 -1 -12 5 -16 5 -3 10 1 10 9 0 18 -6 21 -15 7z"/>
<path d="M1750 2120 c-7 -14 -7 -20 0 -20 5 0 10 6 10 14 0 8 6 17 13 19 9 4
9 6 0 6 -7 1 -17 -8 -23 -19z"/>
<path d="M1925 2115 c11 -9 19 -19 18 -23 -1 -4 1 -9 4 -12 4 -3 3 0 0 7 -4 6
-2 13 4 15 6 2 -2 9 -17 16 -27 12 -28 11 -9 -3z"/>
<path d="M1585 2100 c-3 -6 1 -7 9 -4 18 7 21 14 7 14 -6 0 -13 -4 -16 -10z"/>
<path d="M1616 2091 c-4 -5 -2 -12 3 -15 5 -4 12 -2 15 3 4 5 2 12 -3 15 -5 4
-12 2 -15 -3z"/>
<path d="M1784 2086 c24 -19 32 -20 42 -4 4 7 3 8 -4 4 -6 -4 -22 -2 -34 4
-22 11 -22 10 -4 -4z"/>
<path d="M1767 2069 c7 -7 15 -10 18 -7 3 3 -2 9 -12 12 -14 6 -15 5 -6 -5z"/>
<path d="M2020 2054 c0 -8 5 -12 10 -9 6 4 8 11 5 16 -9 14 -15 11 -15 -7z"/>
<path d="M1483 2045 c0 -8 5 -13 11 -12 6 1 10 -6 10 -15 -2 -24 1 -23 20 6
11 18 13 27 4 32 -6 4 -8 3 -4 -4 3 -6 2 -13 -4 -17 -5 -3 -10 -2 -10 3 0 6
-6 12 -13 15 -8 3 -14 -1 -14 -8z"/>
<path d="M1563 2053 c4 -3 -1 -12 -11 -20 -15 -12 -13 -12 10 -2 26 11 29 29
6 29 -6 0 -8 -3 -5 -7z"/>
<path d="M1607 2029 c7 -7 15 -10 18 -7 3 3 -2 9 -12 12 -14 6 -15 5 -6 -5z"/>
<path d="M1926 2021 c-3 -5 2 -15 12 -22 15 -12 16 -12 5 2 -7 9 -10 19 -6 22
3 4 4 7 0 7 -3 0 -8 -4 -11 -9z"/>
<path d="M2080 2019 c0 -5 5 -7 10 -4 6 3 10 8 10 11 0 2 -4 4 -10 4 -5 0 -10
-5 -10 -11z"/>
<path d="M1765 2011 c-3 -5 0 -13 6 -17 7 -4 9 -3 5 4 -3 5 0 13 6 15 9 4 10
6 1 6 -6 1 -14 -3 -18 -8z"/>
<path d="M1530 1960 c-6 -11 -8 -20 -6 -20 3 0 10 9 16 20 6 11 8 20 6 20 -3
0 -10 -9 -16 -20z"/>
<path d="M1720 1976 c0 -3 9 -10 20 -16 11 -6 20 -8 20 -6 0 3 -9 10 -20 16
-11 6 -20 8 -20 6z"/>
<path d="M2248 1968 c5 -5 16 -8 23 -6 8 3 3 7 -10 11 -17 4 -21 3 -13 -5z"/>
<path d="M1862 1944 c10 -10 20 -16 22 -13 3 3 -5 11 -17 18 -21 13 -21 12 -5
-5z"/>
<path d="M1485 1931 c-3 -5 -1 -12 5 -16 6 -4 7 -11 4 -17 -4 -7 -2 -8 5 -4 8
6 9 12 2 20 -6 7 -8 16 -4 19 3 4 4 7 0 7 -3 0 -8 -4 -12 -9z"/>
<path d="M1597 1919 c7 -7 15 -10 18 -7 3 3 -2 9 -12 12 -14 6 -15 5 -6 -5z"/>
<path d="M1800 1919 c0 -5 5 -7 10 -4 6 3 10 8 10 11 0 2 -4 4 -10 4 -5 0 -10
-5 -10 -11z"/>
<path d="M1440 1901 c-7 -15 -7 -22 2 -27 7 -4 10 -4 6 1 -4 4 -3 16 3 26 5
11 7 19 5 19 -3 0 -10 -9 -16 -19z"/>
<path d="M2125 1900 c3 -5 8 -10 11 -10 2 0 4 5 4 10 0 6 -5 10 -11 10 -5 0
-7 -4 -4 -10z"/>
<path d="M1460 1886 c0 -2 7 -7 16 -10 8 -3 12 -2 9 4 -6 10 -25 14 -25 6z"/>
<path d="M1390 1869 c0 -5 5 -7 10 -4 6 3 10 8 10 11 0 2 -4 4 -10 4 -5 0 -10
-5 -10 -11z"/>
<path d="M1507 1859 c7 -7 15 -10 18 -7 3 3 -2 9 -12 12 -14 6 -15 5 -6 -5z"/>
<path d="M1627 1799 c7 -7 15 -10 18 -7 3 3 -2 9 -12 12 -14 6 -15 5 -6 -5z"/>
<path d="M1527 1759 c7 -7 15 -10 18 -7 3 3 -2 9 -12 12 -14 6 -15 5 -6 -5z"/>
<path d="M1451 1741 c-9 -16 -8 -18 9 -14 11 3 23 9 26 14 3 5 -3 6 -12 2 -12
-4 -15 -3 -10 5 4 7 5 12 2 12 -3 0 -10 -9 -15 -19z"/>
<path d="M1565 1749 c-4 -6 -5 -12 -2 -15 2 -3 7 2 10 11 7 17 1 20 -8 4z"/>
<path d="M1745 1720 c-9 -16 -13 -30 -11 -30 3 0 12 14 21 30 9 17 13 30 11
30 -3 0 -12 -13 -21 -30z"/>
<path d="M1536 1701 c-3 -5 5 -8 18 -7 13 0 22 4 19 9 -6 10 -31 9 -37 -2z"/>
<path d="M2010 1686 c0 -2 7 -9 15 -16 9 -7 15 -8 15 -2 0 5 -7 12 -15 16 -8
3 -15 4 -15 2z"/>
<path d="M1510 1660 c-6 -11 -8 -20 -6 -20 3 0 10 9 16 20 6 11 8 20 6 20 -3
0 -10 -9 -16 -20z"/>
<path d="M2759 1657 c6 -8 7 -18 3 -22 -4 -5 -2 -5 5 -1 14 8 6 36 -9 36 -7 0
-6 -5 1 -13z"/>
<path d="M2975 1560 c3 -5 8 -10 11 -10 2 0 4 5 4 10 0 6 -5 10 -11 10 -5 0
-7 -4 -4 -10z"/>
<path d="M3005 1540 c3 -5 11 -10 16 -10 6 0 7 5 4 10 -3 6 -11 10 -16 10 -6
0 -7 -4 -4 -10z"/>
<path d="M1476 1509 c2 -4 -2 -9 -8 -12 -7 -2 -1 -4 14 -3 31 1 39 22 9 22
-11 0 -18 -3 -15 -7z"/>
<path d="M1535 1469 c-4 -6 -5 -12 -2 -15 2 -3 7 2 10 11 7 17 1 20 -8 4z"/>
<path d="M1449 1403 c-13 -15 -12 -15 9 -4 23 12 28 21 13 21 -5 0 -15 -7 -22
-17z"/>
<path d="M1480 1379 c0 -5 5 -7 10 -4 6 3 10 8 10 11 0 2 -4 4 -10 4 -5 0 -10
-5 -10 -11z"/>
<path d="M2696 1363 c-6 -14 -5 -15 5 -6 7 7 10 15 7 18 -3 3 -9 -2 -12 -12z"/>
<path d="M1567 1353 c-10 -9 -9 -23 1 -23 5 0 9 7 9 15 0 17 -1 18 -10 8z"/>
<path d="M3391 1284 c0 -11 3 -14 6 -6 3 7 2 16 -1 19 -3 4 -6 -2 -5 -13z"/>
<path d="M3250 1266 c0 -3 9 -10 20 -16 11 -6 20 -8 20 -6 0 3 -9 10 -20 16
-11 6 -20 8 -20 6z"/>
<path d="M3430 1220 c-8 -5 -10 -10 -5 -10 6 0 17 5 25 10 8 5 11 10 5 10 -5
0 -17 -5 -25 -10z"/>
<path d="M1562 1205 c4 -4 3 -16 -3 -26 -5 -11 -7 -19 -5 -19 3 0 10 9 16 19
7 15 7 22 -2 27 -7 4 -10 4 -6 -1z"/>
<path d="M3465 1200 c-3 -6 1 -7 9 -4 9 3 16 1 16 -6 0 -6 5 -8 11 -4 8 4 7 9
-2 15 -18 11 -26 11 -34 -1z"/>
<path d="M3545 1140 c-3 -5 -1 -10 4 -10 6 0 11 5 11 10 0 6 -2 10 -4 10 -3 0
-8 -4 -11 -10z"/>
<path d="M3573 1116 c-9 -11 -11 -15 -3 -8 20 17 35 15 19 -4 -11 -14 -10 -15
7 -12 11 2 18 -2 17 -9 -4 -17 9 -16 33 3 18 15 18 15 -3 9 -22 -6 -34 10 -13
17 5 2 -2 8 -15 14 -20 10 -27 8 -42 -10z"/>
<path d="M1675 1120 c-3 -5 -1 -10 4 -10 6 0 11 5 11 10 0 6 -2 10 -4 10 -3 0
-8 -4 -11 -10z"/>
<path d="M1625 1100 c3 -5 12 -7 20 -3 8 3 15 1 15 -4 0 -5 7 -10 15 -10 10 0
12 4 6 10 -12 12 -63 18 -56 7z"/>
<path d="M1780 1026 c0 -2 7 -7 16 -10 8 -3 12 -2 9 4 -6 10 -25 14 -25 6z"/>
<path d="M3610 990 c-8 -5 -10 -10 -5 -10 6 0 17 5 25 10 8 5 11 10 5 10 -5 0
-17 -5 -25 -10z"/>
<path d="M3586 968 c3 -4 14 -8 25 -8 11 0 19 -7 19 -17 0 -15 2 -16 9 -3 13
19 6 27 -28 32 -17 2 -28 1 -25 -4z"/>
<path d="M1690 945 c-7 -9 -8 -15 -2 -15 5 0 12 7 16 15 3 8 4 15 2 15 -2 0
-9 -7 -16 -15z"/>
<path d="M1950 956 c0 -2 7 -7 16 -10 8 -3 12 -2 9 4 -6 10 -25 14 -25 6z"/>
<path d="M1755 920 c-3 -5 -1 -10 4 -10 6 0 11 5 11 10 0 6 -2 10 -4 10 -3 0
-8 -4 -11 -10z"/>
<path d="M1670 909 c0 -5 5 -7 10 -4 6 3 10 8 10 11 0 2 -4 4 -10 4 -5 0 -10
-5 -10 -11z"/>
<path d="M1705 890 c-3 -6 1 -7 9 -4 18 7 21 14 7 14 -6 0 -13 -4 -16 -10z"/>
<path d="M1645 877 c-12 -9 -14 -16 -7 -21 6 -3 16 3 22 14 13 24 10 25 -15 7z"/>
<path d="M1880 886 c0 -2 8 -10 18 -17 15 -13 16 -12 3 4 -13 16 -21 21 -21
13z"/>
<path d="M1766 862 c-3 -5 1 -9 9 -9 8 0 12 4 9 9 -3 4 -7 8 -9 8 -2 0 -6 -4
-9 -8z"/>
<path d="M2240 826 c0 -2 7 -7 16 -10 8 -3 12 -2 9 4 -6 10 -25 14 -25 6z"/>
<path d="M1721 811 c-7 -5 -11 -15 -9 -22 3 -10 8 -7 17 9 13 24 12 26 -8 13z"/>
<path d="M2217 789 c7 -7 15 -10 18 -7 3 3 -2 9 -12 12 -14 6 -15 5 -6 -5z"/>
<path d="M1925 761 c-3 -5 -2 -12 3 -15 5 -3 9 1 9 9 0 17 -3 19 -12 6z"/>
<path d="M2281 757 c2 -1 13 -9 24 -17 19 -14 19 -14 6 3 -7 9 -18 17 -24 17
-6 0 -8 -1 -6 -3z"/>
<path d="M2567 736 c-4 -10 -1 -13 8 -9 8 3 12 9 9 14 -7 12 -11 11 -17 -5z"/>
<path d="M1820 700 c-6 -11 -8 -20 -6 -20 3 0 10 9 16 20 6 11 8 20 6 20 -3 0
-10 -9 -16 -20z"/>
<path d="M1855 710 c-3 -5 -3 -10 2 -10 4 0 1 -5 -7 -11 -10 -7 -11 -9 -2 -7
8 2 13 7 12 12 -1 5 4 13 12 17 9 6 9 9 1 9 -6 0 -15 -4 -18 -10z"/>
<path d="M1915 672 c-4 -10 0 -12 11 -8 8 3 25 1 37 -5 20 -9 20 -9 5 4 -10 8
-16 16 -13 18 2 3 -5 5 -15 5 -11 0 -22 -7 -25 -14z"/>
<path d="M2065 681 c-3 -5 0 -13 6 -17 7 -4 9 -3 5 4 -3 5 0 13 6 15 9 4 10 6
1 6 -6 1 -14 -3 -18 -8z"/>
<path d="M1990 671 c0 -5 7 -12 16 -15 14 -5 15 -4 4 9 -14 17 -20 19 -20 6z"/>
<path d="M2375 650 c-3 -5 -1 -10 4 -10 6 0 11 5 11 10 0 6 -2 10 -4 10 -3 0
-8 -4 -11 -10z"/>
<path d="M1910 640 c8 -5 20 -10 25 -10 6 0 3 5 -5 10 -8 5 -19 10 -25 10 -5
0 -3 -5 5 -10z"/>
<path d="M1980 629 c0 -6 -7 -9 -15 -5 -8 3 -15 1 -15 -4 0 -6 5 -10 11 -10 5
0 7 -5 4 -10 -4 -6 -16 -8 -27 -4 -14 4 -18 2 -14 -5 4 -6 3 -11 -1 -11 -5 0
-18 -7 -29 -15 -16 -13 -16 -14 -1 -9 20 7 22 -4 3 -28 -10 -14 -15 -15 -26
-5 -12 10 -12 9 -1 -5 16 -22 41 -23 41 -3 0 8 5 15 10 15 6 0 10 10 11 23 0
21 1 21 8 2 5 -11 4 -23 0 -26 -5 -3 -3 -14 5 -25 14 -18 15 -17 12 11 -2 18
3 35 13 42 14 12 14 12 -1 7 -21 -7 -24 6 -6 24 13 13 29 16 27 5 -4 -23 3
-31 21 -26 11 3 20 10 20 15 0 5 -10 6 -21 3 -14 -5 -19 -3 -15 3 3 6 2 13 -3
17 -6 3 -8 12 -4 20 3 8 2 15 -1 15 -3 0 -6 -5 -6 -11z"/>
<path d="M1874 617 c3 -20 17 -37 29 -37 7 0 4 5 -7 11 -13 8 -15 13 -6 19 9
5 8 9 -3 13 -8 3 -14 0 -13 -6z"/>
<path d="M2080 620 c17 -10 20 -32 7 -41 -5 -3 -2 -9 6 -12 11 -4 15 0 12 14
-2 10 1 19 7 19 7 0 3 7 -8 15 -10 8 -23 14 -29 15 -5 0 -3 -5 5 -10z"/>
<path d="M2324 622 c3 -6 2 -12 -4 -14 -6 -2 0 -9 12 -17 22 -13 22 -13 8 4
-14 17 -13 18 3 12 24 -9 21 0 -4 14 -13 6 -19 7 -15 1z"/>
<path d="M2265 610 c-3 -5 -1 -10 4 -10 6 0 11 5 11 10 0 6 -2 10 -4 10 -3 0
-8 -4 -11 -10z"/>
<path d="M2405 590 c-3 -5 -2 -10 4 -10 5 0 13 5 16 10 3 6 2 10 -4 10 -5 0
-13 -4 -16 -10z"/>
<path d="M2256 581 c-3 -4 2 -17 10 -27 9 -10 13 -13 9 -6 -4 7 0 12 9 12 9 0
16 5 16 11 0 6 -9 8 -21 4 -15 -5 -19 -4 -15 4 4 6 5 11 2 11 -3 0 -7 -4 -10
-9z"/>
<path d="M2175 570 c3 -5 14 -10 23 -10 15 0 15 2 2 10 -20 13 -33 13 -25 0z"/>
<path d="M2307 556 c-6 -15 1 -26 15 -26 11 0 10 27 -1 34 -5 3 -11 0 -14 -8z"/>
<path d="M2641 561 c-8 -5 -9 -11 -3 -15 5 -3 12 1 16 9 6 17 6 18 -13 6z"/>
<path d="M2230 540 c8 -5 20 -10 25 -10 6 0 3 5 -5 10 -8 5 -19 10 -25 10 -5
0 -3 -5 5 -10z"/>
<path d="M2347 543 c-12 -11 -8 -23 8 -23 7 0 18 -7 23 -16 6 -11 11 -13 16
-5 4 6 2 11 -3 11 -6 0 -11 7 -11 15 0 9 -6 12 -17 8 -11 -4 -14 -3 -9 5 8 13
3 16 -7 5z"/>
<path d="M2420 530 c-6 -11 -8 -20 -6 -20 3 0 10 9 16 20 6 11 8 20 6 20 -3 0
-10 -9 -16 -20z"/>
<path d="M3107 2155 c-20 -19 -11 -61 9 -44 20 16 17 30 -3 22 -16 -6 -16 -4
1 15 21 25 16 30 -7 7z"/>
<path d="M3075 2090 c3 -5 8 -10 11 -10 2 0 4 5 4 10 0 6 -5 10 -11 10 -5 0
-7 -4 -4 -10z"/>
<path d="M2115 419 c-4 -6 -5 -12 -2 -15 2 -3 7 2 10 11 7 17 1 20 -8 4z"/>
<path d="M1875 4990 c-3 -6 1 -7 9 -4 18 7 21 14 7 14 -6 0 -13 -4 -16 -10z"/>
<path d="M1986 4976 c-21 -18 -25 -25 -15 -31 8 -5 11 -5 7 -1 -4 5 5 19 20
32 35 30 26 30 -12 0z"/>
<path d="M2056 4988 c3 -4 11 -5 19 -1 21 7 19 12 -4 10 -11 0 -18 -5 -15 -9z"/>
<path d="M2099 4983 c-13 -17 -13 -17 6 -3 11 8 22 16 24 17 2 2 0 3 -6 3 -6
0 -17 -8 -24 -17z"/>
<path d="M2355 4978 c9 -16 19 -28 22 -28 2 0 1 5 -2 11 -4 6 1 17 11 25 18
14 18 15 -2 5 -15 -7 -25 -7 -34 2 -7 7 -5 0 5 -15z"/>
<path d="M2800 4993 c0 -6 8 -17 18 -24 16 -13 16 -13 2 6 -8 11 -16 22 -17
24 -2 2 -3 0 -3 -6z"/>
<path d="M2875 4990 c3 -5 8 -10 11 -10 2 0 4 5 4 10 0 6 -5 10 -11 10 -5 0
-7 -4 -4 -10z"/>
<path d="M3000 4981 c12 -24 30 -36 30 -21 0 6 5 8 13 4 9 -6 9 -5 0 8 -7 8
-10 18 -6 21 3 4 1 7 -6 7 -8 0 -11 -7 -7 -17 6 -17 5 -17 -8 0 -18 23 -29 22
-16 -2z"/>
<path d="M3166 4988 c3 -5 10 -6 15 -3 13 9 11 12 -6 12 -8 0 -12 -4 -9 -9z"/>
<path d="M3345 4990 c-2 -3 7 -7 21 -8 13 -1 24 2 24 7 0 10 -39 11 -45 1z"/>
<path d="M2216 4967 c3 -10 9 -15 12 -12 3 3 0 11 -7 18 -10 9 -11 8 -5 -6z"/>
<path d="M1889 4957 c6 -8 7 -18 3 -22 -4 -5 -1 -5 6 -1 10 6 10 11 1 22 -6 8
-14 14 -16 14 -3 0 0 -6 6 -13z"/>
<path d="M2570 4940 c6 -11 13 -20 16 -20 2 0 0 9 -6 20 -6 11 -13 20 -16 20
-2 0 0 -9 6 -20z"/>
<path d="M2730 4952 c0 -8 -5 -10 -12 -6 -8 4 -10 3 -5 -2 5 -5 13 -9 17 -9 5
0 16 -9 25 -20 l16 -20 -10 20 c-19 37 -31 51 -31 37z"/>
<path d="M2880 4940 c6 -11 13 -20 16 -20 2 0 0 9 -6 20 -6 11 -13 20 -16 20
-2 0 0 -9 6 -20z"/>
<path d="M2090 4934 c0 -1 8 -8 17 -15 9 -8 14 -9 10 -2 -4 6 -1 13 5 16 7 3
3 4 -9 4 -13 -1 -23 -2 -23 -3z"/>
<path d="M2635 4916 c10 -14 19 -26 22 -26 7 0 -17 39 -28 46 -6 3 -3 -5 6
-20z"/>
<path d="M2269 4918 c-5 -9 -4 -56 1 -52 5 6 8 54 3 54 -2 0 -4 -1 -4 -2z"/>
<path d="M2467 4907 c-3 -8 1 -14 8 -14 7 0 11 6 8 14 -3 7 -6 13 -8 13 -2 0
-5 -6 -8 -13z"/>
<path d="M2571 4903 c7 -12 15 -20 18 -17 3 2 -3 12 -13 22 -17 16 -18 16 -5
-5z"/>
<path d="M1960 4901 c0 -6 4 -13 10 -16 6 -3 7 1 4 9 -7 18 -14 21 -14 7z"/>
<path d="M2207 4893 c-9 -8 12 -45 23 -38 4 3 18 -7 29 -21 12 -15 21 -22 21
-17 0 16 -46 54 -55 46 -4 -5 -5 0 -2 9 6 18 -5 32 -16 21z"/>
<path d="M3176 4882 c-3 -5 1 -9 9 -9 8 0 12 4 9 9 -3 4 -7 8 -9 8 -2 0 -6 -4
-9 -8z"/>
<path d="M2184 4872 c3 -6 -2 -15 -11 -21 -10 -5 -15 -12 -12 -15 3 -4 14 2
23 13 13 14 14 21 5 27 -7 4 -10 3 -5 -4z"/>
<path d="M2470 4840 c12 -16 24 -30 26 -30 3 0 -4 14 -16 30 -12 17 -24 30
-26 30 -3 0 4 -13 16 -30z"/>
<path d="M2678 4853 c7 -12 16 -24 21 -28 14 -8 21 9 10 25 -5 8 -9 11 -9 6 0
-5 -7 -2 -17 5 -15 13 -15 12 -5 -8z"/>
<path d="M2630 4851 c0 -6 4 -13 10 -16 6 -3 7 1 4 9 -7 18 -14 21 -14 7z"/>
<path d="M2296 4833 c-4 -11 -1 -11 14 -3 24 13 25 17 5 17 -8 0 -16 -6 -19
-14z"/>
<path d="M2506 4842 c-2 -4 -1 -14 5 -22 6 -11 9 -12 9 -2 0 8 5 10 13 6 8 -5
8 -2 -2 9 -15 19 -18 20 -25 9z"/>
<path d="M2564 4818 c-4 -6 -3 -8 3 -5 13 8 87 -101 86 -125 -1 -11 4 -15 12
-11 11 4 2 24 -36 79 -27 41 -51 74 -54 74 -2 0 -7 -5 -11 -12z"/>
<path d="M2646 4812 c-3 -5 1 -9 9 -9 8 0 12 4 9 9 -3 4 -7 8 -9 8 -2 0 -6 -4
-9 -8z"/>
<path d="M2536 4802 c-3 -5 1 -9 9 -9 8 0 12 4 9 9 -3 4 -7 8 -9 8 -2 0 -6 -4
-9 -8z"/>
<path d="M2717 4793 c6 -16 5 -16 -10 -4 -18 14 42 -90 68 -119 18 -19 20 -34
4 -24 -7 4 -1 -7 12 -25 12 -17 24 -31 25 -31 6 0 -6 53 -15 64 -14 17 -3 48
13 39 6 -4 5 1 -3 10 -7 9 -17 14 -22 11 -13 -8 -10 8 5 28 7 10 17 14 21 10
4 -4 0 5 -10 21 -9 15 -19 27 -22 27 -2 0 -1 -4 2 -10 5 -9 -7 -14 -27 -11
-11 1 -1 -48 16 -74 29 -43 8 -27 -23 19 -17 25 -28 51 -25 59 3 8 1 18 -5 22
-7 4 -8 -1 -4 -12z m72 -44 c-7 -14 -14 -18 -21 -11 -13 13 -2 32 18 32 12 0
13 -4 3 -21z"/>
<path d="M2310 4770 c0 -5 5 -10 11 -10 5 0 7 5 4 10 -3 6 -8 10 -11 10 -2 0
-4 -4 -4 -10z"/>
<path d="M2547 4766 c-16 -13 -16 -14 1 -36 15 -18 21 -20 27 -10 5 8 4 11 -2
7 -6 -4 -10 4 -10 19 l0 26 23 -28 c13 -16 23 -35 24 -41 0 -18 17 -16 17 2 0
8 -7 17 -14 19 -8 4 -11 11 -7 18 4 7 4 10 -1 6 -4 -4 -15 2 -24 12 -14 17
-19 17 -34 6z"/>
<path d="M2646 4757 c3 -10 9 -15 12 -12 3 3 0 11 -7 18 -10 9 -11 8 -5 -6z"/>
<path d="M2886 4701 c-4 -5 -2 -12 3 -15 5 -4 12 -2 15 3 4 5 2 12 -3 15 -5 4
-12 2 -15 -3z"/>
</g>
</svg>
